<svg xmlns="http://www.w3.org/2000/svg" width="47.652" height="55.074" viewBox="0 0 47.652 55.074"><defs><style>.a{fill:#a4c639;}.b{fill:none;stroke:#a4c639;stroke-linecap:round;stroke-linejoin:round;stroke-width:3px;}.c{fill:#fff;}</style></defs><g transform="translate(-32.164 -67.96)"><path class="a" d="M90.976,207.092a3.332,3.332,0,0,1,3.332,3.332v14.292a3.332,3.332,0,0,1-6.663,0V210.424a3.332,3.332,0,0,1,3.331-3.331Z" transform="translate(-42.501 -105.013)"></path><path class="a" d="M69.307,133.645c-.011.126-.021.254-.021.383v21.653a4.16,4.16,0,0,0,4.131,4.2h22.02a4.16,4.16,0,0,0,4.132-4.2V134.028c0-.129,0-.257-.015-.383Z" transform="translate(-28.437 -48.749)"></path><path class="a" d="M63.505,104.181a3.332,3.332,0,0,1,3.332,3.332V121.8a3.332,3.332,0,0,1-6.663,0V107.513a3.332,3.332,0,0,1,3.331-3.331ZM35.5,88.925a3.332,3.332,0,0,1,3.331,3.332v14.292a3.332,3.332,0,0,1-6.663,0V92.257A3.332,3.332,0,0,1,35.5,88.925Zm40.989,0a3.332,3.332,0,0,1,3.331,3.332v14.292a3.331,3.331,0,1,1-6.663,0V92.257a3.332,3.332,0,0,1,3.332-3.332ZM40.966,85.576c.093-6.651,5.9-12.1,13.349-12.823h3.348c7.452.719,13.257,6.172,13.349,12.823Z" transform="translate(0 -2.102)"></path><path class="b" d="M74.743,70.009,78.257,76.1m24.216-6.087L98.959,76.1" transform="translate(-32.618)"></path><path class="c" d="M103.59,96.559a1.724,1.724,0,0,1-3.447.009v-.009a1.724,1.724,0,0,1,3.447-.009Zm12.866,0a1.724,1.724,0,0,1-3.447.009v-.009a1.724,1.724,0,0,1,3.447-.009Z" transform="translate(-52.076 -19.046)"></path></g></svg>