<svg xmlns="http://www.w3.org/2000/svg" xmlns:xlink="http://www.w3.org/1999/xlink" viewBox="0 0 500 500"><defs><style>.cls-1,.cls-12{isolation:isolate;}.cls-2{fill:#ebebeb;}.cls-3{fill:#dbdbdb;}.cls-4{fill:#263238;}.cls-5{fill:#8a84e0;}.cls-32,.cls-6{fill:#c9c6fa;}.cls-7{fill:#fff;}.cls-8{fill:#dd6a57;}.cls-9{fill:#38356e;}.cls-10{fill:#37474f;}.cls-11,.cls-12{fill:#222042;}.cls-12{opacity:0.1;}.cls-13{fill:#d481a0;}.cls-14{fill:url(#linear-gradient);}.cls-15{fill:url(#linear-gradient-2);}.cls-16{fill:#e198b1;}.cls-17{fill:url(#linear-gradient-3);}.cls-18{fill:url(#linear-gradient-4);}.cls-19{fill:#cbbbdc;}.cls-20{fill:url(#linear-gradient-5);}.cls-21,.cls-26,.cls-32{mix-blend-mode:multiply;opacity:0.5;}.cls-21{fill:url(#linear-gradient-6);}.cls-22{fill:#e9a8bc;}.cls-23{fill:#e5d9eb;}.cls-24{fill:url(#linear-gradient-7);}.cls-25{fill:#565aa8;}.cls-26{fill:url(#linear-gradient-8);}.cls-27{fill:url(#linear-gradient-9);}.cls-28{fill:url(#linear-gradient-10);}.cls-29{fill:url(#linear-gradient-11);}.cls-30{fill:url(#linear-gradient-12);}.cls-31,.cls-33{mix-blend-mode:screen;}.cls-31{opacity:0.45;}.cls-33{fill:url(#linear-gradient-13);}.cls-34{fill:#e4a2b6;}</style><linearGradient id="linear-gradient" x1="353.12" y1="216.5" x2="364.4" y2="201" gradientUnits="userSpaceOnUse"><stop offset="0" stop-color="#e198b1"></stop><stop offset="1" stop-color="#ecb4c0"></stop></linearGradient><linearGradient id="linear-gradient-2" x1="376.47" y1="225.48" x2="378.62" y2="245.45" gradientUnits="userSpaceOnUse"><stop offset="0" stop-color="#d1719e"></stop><stop offset="1" stop-color="#e198b1" stop-opacity="0.3"></stop></linearGradient><linearGradient id="linear-gradient-3" x1="319.18" y1="223.53" x2="326.38" y2="206.31" gradientUnits="userSpaceOnUse"><stop offset="0" stop-color="#e9a8bc"></stop><stop offset="1" stop-color="#f0c6c7"></stop></linearGradient><linearGradient id="linear-gradient-4" x1="360.36" y1="212.05" x2="355.52" y2="238.16" xlink:href="#linear-gradient-2"></linearGradient><linearGradient id="linear-gradient-5" x1="401.58" y1="352.06" x2="371.2" y2="353.32" gradientUnits="userSpaceOnUse"><stop offset="0" stop-color="#303085"></stop><stop offset="1" stop-color="#4a4ea1"></stop></linearGradient><linearGradient id="linear-gradient-6" x1="386.68" y1="362.14" x2="368.68" y2="401.8" gradientUnits="userSpaceOnUse"><stop offset="0" stop-color="#303085"></stop><stop offset="1" stop-color="#303085" stop-opacity="0.3"></stop></linearGradient><linearGradient id="linear-gradient-7" x1="422.53" y1="348.97" x2="390.59" y2="359.61" gradientUnits="userSpaceOnUse"><stop offset="0" stop-color="#3a3c98"></stop><stop offset="1" stop-color="#5157a6"></stop></linearGradient><linearGradient id="linear-gradient-8" x1="377.06" y1="277.05" x2="417.86" y2="277.05" xlink:href="#linear-gradient-6"></linearGradient><linearGradient id="linear-gradient-9" x1="408.09" y1="160.18" x2="403.28" y2="131.34" gradientUnits="userSpaceOnUse"><stop offset="0" stop-color="#3a3c98"></stop><stop offset="1" stop-color="#716ab0"></stop></linearGradient><linearGradient id="linear-gradient-10" x1="405.84" y1="159.13" x2="400.51" y2="127.19" gradientTransform="translate(224.04 -242.06) rotate(45)" xlink:href="#linear-gradient-9"></linearGradient><linearGradient id="linear-gradient-11" x1="413.2" y1="173.64" x2="388.56" y2="163.72" xlink:href="#linear-gradient-3"></linearGradient><linearGradient id="linear-gradient-12" x1="401.2" y1="176.35" x2="397.08" y2="186.8" xlink:href="#linear-gradient-2"></linearGradient><linearGradient id="linear-gradient-13" x1="338.48" y1="213.98" x2="405.06" y2="190.41" gradientUnits="userSpaceOnUse"><stop offset="0" stop-color="#f8eb89"></stop><stop offset="1" stop-color="#ebb028" stop-opacity="0.3"></stop></linearGradient></defs><g class="cls-1"><g id="Layer_1" data-name="Layer 1"><g id="Background_Complete" data-name="Background Complete"><path class="cls-2" d="M41.54,202.37a3,3,0,0,1,3.09,0l.79.45.82.41A3,3,0,0,1,48,205.82l.11,3.8,12.39-.39-.12-3.8a3,3,0,0,1,1.56-2.67,16,16,0,0,0,1.57-1,3,3,0,0,1,3.07-.2l3.35,1.8,5.86-10.93-3.35-1.79A2.93,2.93,0,0,1,70.88,188a16.26,16.26,0,0,0-.07-1.85,3,3,0,0,1,1.37-2.77l3.23-2-6.53-10.53-3.25,2a2.94,2.94,0,0,1-3.08,0l-.79-.45L61,172a3,3,0,0,1-1.73-2.56l-.12-3.81L46.72,166l.12,3.79a3,3,0,0,1-1.56,2.67,16,16,0,0,0-1.57,1,3,3,0,0,1-3.08.2l-3.34-1.8-5.86,10.93,3.34,1.79a3,3,0,0,1,1.54,2.67q0,.93.06,1.86A3,3,0,0,1,35,191.85l-3.22,2,6.53,10.53Zm3.1-19.56a10.15,10.15,0,1,1,4.16,13.75A10.15,10.15,0,0,1,44.64,182.81Z"></path><path class="cls-2" d="M76.6,158.28a2.07,2.07,0,0,1,1.92-1H79.8a2.07,2.07,0,0,1,1.91,1l1.29,2.3,7.52-4.34-1.33-2.3a2.07,2.07,0,0,1,.08-2.17,11.19,11.19,0,0,0,.64-1.12,2.09,2.09,0,0,1,1.84-1.14h2.66v-8.68H91.79A2.07,2.07,0,0,1,90,139.69a11.19,11.19,0,0,0-.64-1.12,2.05,2.05,0,0,1-.08-2.16l1.33-2.31L83,129.76l-1.34,2.32a2.07,2.07,0,0,1-1.9,1H78.52a2.07,2.07,0,0,1-1.92-1l-1.33-2.31-7.52,4.34,1.33,2.3a2.07,2.07,0,0,1-.07,2.16,9.73,9.73,0,0,0-.65,1.13,2.09,2.09,0,0,1-1.84,1.14H63.87v8.68h2.65a2.09,2.09,0,0,1,1.84,1.14,9.73,9.73,0,0,0,.65,1.13,2.07,2.07,0,0,1,.07,2.16l-1.33,2.3,7.52,4.34ZM72,145.17a7.11,7.11,0,1,1,7.12,7.11A7.11,7.11,0,0,1,72,145.17Z"></path><path class="cls-2" d="M379.76,59.09a2.07,2.07,0,0,1,1,1.92v1.28a2.07,2.07,0,0,1-1,1.91l-2.31,1.33,4.34,7.52,2.3-1.33a2.07,2.07,0,0,1,2.17.08c.36.23.73.45,1.12.65a2.06,2.06,0,0,1,1.14,1.83v2.66h8.68V74.28a2.06,2.06,0,0,1,1.14-1.83c.39-.2.76-.42,1.12-.65a2.07,2.07,0,0,1,2.17-.08l2.3,1.33,4.34-7.52L406,64.19a2.07,2.07,0,0,1-1-1.9V61a2.07,2.07,0,0,1,1-1.92l2.31-1.33L404,50.24l-2.3,1.33a2.05,2.05,0,0,1-2.16-.07,9.73,9.73,0,0,0-1.13-.65A2.08,2.08,0,0,1,397.21,49V46.36h-8.68V49a2.06,2.06,0,0,1-1.14,1.84,9.73,9.73,0,0,0-1.13.65,2.05,2.05,0,0,1-2.16.07l-2.3-1.33-4.34,7.52Zm13.11-4.56a7.12,7.12,0,1,1-7.11,7.13h0A7.12,7.12,0,0,1,392.87,54.53Z"></path><polygon class="cls-2" points="216.5 396.85 403.19 396.85 407.08 320.25 212.61 320.25 216.5 396.85"></polygon><path class="cls-3" d="M394.34,355.31h-78l-1.46-26.59H396.1Zm-77.16-.94h76.28l1.59-24.71H315.82Z"></path><path class="cls-3" d="M392.9,385.91H319.35l-1.2-24H394.4ZM320.24,385H392l1.38-22.13H319.14Z"></path><path class="cls-3" d="M362.83,344.9H349.72l-.83-6.42h14.77Zm-12.28-.9H362l.58-4.53H350Z"></path><path class="cls-3" d="M362.83,377.11H349.72l-.83-6.41h14.77Zm-12.28-.94H362l.58-4.53H350Z"></path><path class="cls-3" d="M302.53,355.31h-78L223,328.72h81.22Zm-77.16-.94h76.28l1.59-24.71H224Z"></path><path class="cls-3" d="M301.09,385.91H227.54l-1.2-24h76.25ZM228.43,385h71.78l1.38-22.13H227.33Z"></path><path class="cls-3" d="M271,344.9H257.91l-.83-6.42h14.77Zm-12.26-.9h11.45l.59-4.53H258.15Z"></path><path class="cls-3" d="M271,377.11H257.91l-.83-6.41h14.77Zm-12.28-.94h11.45l.59-4.53H258.15Z"></path><polygon class="cls-2" points="233.24 396.85 232.07 405.2 229.71 421.97 225.1 421.97 225.1 396.85 233.24 396.85"></polygon><polygon class="cls-3" points="233.24 396.85 232.07 405.2 225.1 405.2 225.1 396.85 233.24 396.85"></polygon><polygon class="cls-2" points="386.45 396.85 387.62 405.2 389.98 421.97 394.59 421.97 394.59 396.85 386.45 396.85"></polygon><polygon class="cls-3" points="386.45 396.85 387.62 405.2 394.59 405.2 394.59 396.85 386.45 396.85"></polygon></g><g id="Shadow"><ellipse class="cls-2" cx="361.11" cy="451.92" rx="106.25" ry="18.45"></ellipse><ellipse class="cls-2" cx="95.65" cy="452.35" rx="46.8" ry="11.22"></ellipse></g><g id="Floor"><polygon class="cls-4" points="29.71 422.48 84.78 422.24 139.85 422.15 250 421.98 360.15 422.15 415.22 422.23 470.29 422.48 415.22 422.72 360.15 422.81 250 422.98 139.85 422.81 84.78 422.72 29.71 422.48"></polygon></g><g id="Gears"><path class="cls-5" d="M94.51,46.44a42,42,0,1,0,42,42,42,42,0,0,0-42-42Zm0,61.58a19.61,19.61,0,1,1,19.61-19.61h0A19.6,19.6,0,0,1,94.51,108Z"></path><polygon class="cls-5" points="102.58 48.18 86.44 48.18 87.33 36.76 101.69 36.76 102.58 48.18"></polygon><polygon class="cls-5" points="71.85 53.62 60.44 65.04 52.99 56.33 63.14 46.17 71.85 53.62"></polygon><polygon class="cls-5" points="53.97 79.2 53.97 95.34 42.55 94.45 42.55 80.09 53.97 79.2"></polygon><polygon class="cls-5" points="59.41 109.92 70.83 121.34 62.12 128.79 51.96 118.64 59.41 109.92"></polygon><polygon class="cls-5" points="84.98 127.81 101.13 127.81 100.24 139.23 85.88 139.23 84.98 127.81"></polygon><polygon class="cls-5" points="115.71 122.37 127.13 110.95 134.58 119.66 124.42 129.82 115.71 122.37"></polygon><polygon class="cls-5" points="133.59 96.79 133.59 80.65 145.02 81.54 145.02 95.9 133.59 96.79"></polygon><polygon class="cls-5" points="128.16 66.06 116.74 54.65 125.45 47.2 135.6 57.35 128.16 66.06"></polygon><path class="cls-4" d="M97.3,78.17V97.81a1.86,1.86,0,0,1-1.87,1.83,1.81,1.81,0,0,1-1.83-1.79V81.43l-1.33.76a1.71,1.71,0,0,1-.93.27,1.87,1.87,0,0,1-1-3.43l4.1-2.43s.1,0,.13-.07.1-.06.17-.1h.19a.33.33,0,0,1,.14,0,.45.45,0,0,1,.23,0h.5a.36.36,0,0,1,.2.06h.13s.14.1.2.1l.14.1a.64.64,0,0,1,.13.1l.13.13a.32.32,0,0,1,.1.13l.14.14v.16s.07.1.07.17,0,.13.07.17v.16a.3.3,0,0,0,.07.24Z"></path><path class="cls-6" d="M135.26,43.91c-1.19,10.11-7.69,12-8.78,14.66a46.25,46.25,0,0,0-1.36,5.17H114.55a45.65,45.65,0,0,0-1.35-5.17c-1.08-2.7-7.58-4.57-8.75-14.69-.77-6.64,4.24-17.13,15.42-17.12S136,37.26,135.26,43.91Z"></path><rect class="cls-7" x="115.33" y="47.45" width="0.69" height="17.1" transform="translate(-8.27 22.04) rotate(-10.51)"></rect><rect class="cls-7" x="115.47" y="55.68" width="17.1" height="0.69" transform="translate(46.06 167.57) rotate(-79.36)"></rect><path class="cls-7" d="M119.85,53.24h0a3.23,3.23,0,0,1-2.46-2,1.29,1.29,0,0,1-.89.47h0c-1.61,0-2.25-3.3-2.27-3.44l.34-.06c.16.87.83,3.15,1.93,3.15h0a1,1,0,0,0,.73-.45,7.3,7.3,0,0,1-.78-3c0-.94.36-1.47,1-1.47h0a1,1,0,0,1,.91.51c.49.87.12,2.57-.5,3.66q-.1.18-.21.33c.56,1.07,1.36,1.93,2.22,1.93h0c.77,0,1.46-.71,2-1.65a4.33,4.33,0,0,1-1-2.84c0-1.2.45-1.94,1.19-1.94h0c.6,0,.94.59.94,1.61a8,8,0,0,1-.76,3.11,1.5,1.5,0,0,0,1,.41h0c1,0,1.79-2.29,2-3.18l.33.1c-.09.35-1,3.42-2.37,3.42h0a1.86,1.86,0,0,1-1.17-.44A2.76,2.76,0,0,1,119.85,53.24ZM122,46.82c-.63,0-.85.85-.85,1.59a4.33,4.33,0,0,0,.78,2.51,7.33,7.33,0,0,0,.66-2.84C122.59,47.7,122.53,46.82,122,46.82Zm-4.6,0c-.53,0-.64.62-.64,1.13a6.86,6.86,0,0,0,.66,2.67l.09-.14c.57-1,.91-2.59.5-3.32A.66.66,0,0,0,117.4,46.82Z"></path><rect class="cls-4" x="113.39" y="63.16" width="13.04" height="2.55"></rect><rect class="cls-4" x="118.55" y="61" width="2.55" height="13.04" transform="translate(52.18 187.28) rotate(-89.94)"></rect><rect class="cls-4" x="118.55" y="63.96" width="2.55" height="13.04" transform="translate(49.22 190.23) rotate(-89.94)"></rect><path class="cls-6" d="M163.85,173.11a50.24,50.24,0,1,0,50.21,50.27v0A50.29,50.29,0,0,0,163.85,173.11Zm0,89.78a39.55,39.55,0,1,1,39.52-39.58v0a39.53,39.53,0,0,1-39.52,39.54Zm0-89.78a50.24,50.24,0,1,0,50.21,50.27v0a50.29,50.29,0,0,0-50.21-50.24Zm0,89.78a39.55,39.55,0,1,1,39.52-39.58v0a39.53,39.53,0,0,1-39.52,39.54Zm0-124.23a84.68,84.68,0,1,0,84.66,84.7h0A84.69,84.69,0,0,0,163.85,138.66Zm0,139.74a55.06,55.06,0,1,1,55-55.12v.12a55.12,55.12,0,0,1-55,55Zm0-105.29a50.24,50.24,0,1,0,50.21,50.27v0a50.29,50.29,0,0,0-50.21-50.24Zm0,89.78a39.55,39.55,0,1,1,39.52-39.58v0a39.53,39.53,0,0,1-39.52,39.54Z"></path><polygon class="cls-6" points="173.78 140.2 154.39 140.2 156.32 120.85 171.85 120.85 173.78 140.2"></polygon><polygon class="cls-6" points="130.87 146.37 114.08 156.06 106.08 138.34 119.52 130.57 130.87 146.37"></polygon><polygon class="cls-6" points="96.8 173.16 87.1 189.95 71.31 178.6 79.07 165.16 96.8 173.16"></polygon><polygon class="cls-6" points="80.69 213.4 80.69 232.79 61.33 230.86 61.33 215.33 80.69 213.4"></polygon><polygon class="cls-6" points="86.85 256.31 96.55 273.1 78.82 281.1 71.06 267.65 86.85 256.31"></polygon><polygon class="cls-6" points="113.65 290.38 130.44 300.07 119.09 315.87 105.64 308.11 113.65 290.38"></polygon><polygon class="cls-6" points="153.89 306.49 173.28 306.49 171.34 325.85 155.82 325.85 153.89 306.49"></polygon><polygon class="cls-6" points="196.79 300.32 213.58 290.63 221.59 308.36 208.14 316.12 196.79 300.32"></polygon><polygon class="cls-6" points="230.87 273.53 240.56 256.74 256.36 268.09 248.59 281.54 230.87 273.53"></polygon><polygon class="cls-6" points="246.98 233.29 246.98 213.9 266.33 215.83 266.33 231.36 246.98 233.29"></polygon><polygon class="cls-6" points="240.81 190.38 231.12 173.59 248.84 165.59 256.61 179.04 240.81 190.38"></polygon><polygon class="cls-6" points="214.02 156.31 197.23 146.62 208.57 130.82 222.02 138.59 214.02 156.31"></polygon><path class="cls-4" d="M171.22,235.66a1.81,1.81,0,0,1-1.79,1.83H157.54a1.8,1.8,0,0,1-1.37-.6,1.83,1.83,0,0,1,.1-2.59h0l9.86-8.93a4.17,4.17,0,0,0,1.4-3.19,4.36,4.36,0,0,0-1.1-2.9,4.19,4.19,0,0,0-3.2-1.4,4.34,4.34,0,0,0-2.89,1.1l-1,.93a1.79,1.79,0,0,1-2.54-.08s0,0-.05-.05a1.85,1.85,0,0,1,.13-2.6h0l1-.93a7.87,7.87,0,0,1,5.36-2.06,8,8,0,0,1,5.93,2.63,7.82,7.82,0,0,1,2.06,5.36,8,8,0,0,1-2.63,5.92l-6.29,5.7h7.09a1.83,1.83,0,0,1,1.82,1.84Z"></path><path class="cls-4" d="M229.76,183.91l-6,4.52L212.7,173.84l-4-5.34a9.17,9.17,0,0,0,2.32-1.31,9.65,9.65,0,0,0,3.06-4l4.3,5.66Z"></path><path class="cls-4" d="M218,149.55a16.28,16.28,0,1,0-3,22.84,16.79,16.79,0,0,0,3.38-3.51A16.3,16.3,0,0,0,218,149.55Zm-7,17.64a9.17,9.17,0,0,1-2.32,1.31,9.68,9.68,0,1,1,2.32-1.31Z"></path><path class="cls-6" d="M442.2,124.29a19.15,19.15,0,1,0-17.29,20.85,19.14,19.14,0,0,0,17.29-20.85Zm-17.5,18.52a16.82,16.82,0,1,1,15.18-18.31h0A16.83,16.83,0,0,1,424.7,142.81Zm17.5-18.52a19.15,19.15,0,1,0-17.29,20.85,19.14,19.14,0,0,0,17.29-20.85Zm-17.5,18.52a16.82,16.82,0,1,1,15.18-18.31h0A16.83,16.83,0,0,1,424.7,142.81Zm17.5-18.52a19.15,19.15,0,1,0-17.29,20.85,19.14,19.14,0,0,0,17.29-20.85Zm-17.5,18.52a16.82,16.82,0,1,1,15.18-18.31h0A16.83,16.83,0,0,1,424.7,142.81Zm38.63-20.48a40.37,40.37,0,1,0-36.45,43.94h0a40.37,40.37,0,0,0,36.45-43.94ZM425.19,148.1a22.14,22.14,0,1,1,20-24.09h0A22.16,22.16,0,0,1,425.19,148.1ZM421.37,107a19.16,19.16,0,1,0,20.83,17.33v0A19.15,19.15,0,0,0,421.37,107Zm3.33,35.82a16.82,16.82,0,1,1,15.18-18.31h0a16.82,16.82,0,0,1-15.18,18.29Zm17.5-18.52a19.15,19.15,0,1,0-17.29,20.85A19.14,19.14,0,0,0,442.2,124.3v0Zm-17.5,18.52a16.82,16.82,0,1,1,15.18-18.31h0a16.82,16.82,0,0,1-15.18,18.29Zm17.5-18.52a19.15,19.15,0,1,0-17.29,20.85A19.14,19.14,0,0,0,442.2,124.3v0Zm-17.5,18.52a16.82,16.82,0,1,1,15.18-18.31h0a16.82,16.82,0,0,1-15.18,18.29Z"></path><polygon class="cls-6" points="427.28 86.81 411.82 88.25 411.66 77.23 425.41 75.95 427.28 86.81"></polygon><polygon class="cls-6" points="398.34 94.76 388.43 106.7 380.52 99.03 389.34 88.4 398.34 94.76"></polygon><polygon class="cls-6" points="383.5 120.84 384.93 136.29 373.91 136.46 372.63 122.71 383.5 120.84"></polygon><polygon class="cls-6" points="391.44 149.78 403.38 159.69 395.7 167.6 385.08 158.78 391.44 149.78"></polygon><polygon class="cls-6" points="417.52 164.62 432.98 163.19 433.14 174.21 419.39 175.49 417.52 164.62"></polygon><polygon class="cls-6" points="446.46 156.68 456.37 144.73 464.28 152.41 455.46 163.04 446.46 156.68"></polygon><polygon class="cls-6" points="461.3 130.6 459.87 115.14 470.89 114.98 472.17 128.73 461.3 130.6"></polygon><polygon class="cls-6" points="453.36 101.66 441.41 91.75 449.09 83.84 459.72 92.66 453.36 101.66"></polygon><path class="cls-4" d="M431.32,130.55a1.83,1.83,0,0,1-1.83,1.83h-.36v2.53a1.84,1.84,0,0,1-3.67,0v-2.53H415a1.69,1.69,0,0,1-1.14-.4,1.79,1.79,0,0,1-.35-2.51l.05-.06,12.32-15.31L426,114a.41.41,0,0,0,.1-.13.59.59,0,0,0,.17-.1l.13-.1c.07,0,.1-.07.2-.07a.14.14,0,0,1,.13-.1.66.66,0,0,1,.2-.06.17.17,0,0,0,.14,0h.56a.25.25,0,0,0,.17,0,.36.36,0,0,1,.2.06h.13l.17.13.16.1h0s.1,0,.1.07a.8.8,0,0,0,.13.13l.1.13a1.09,1.09,0,0,1,.13.17.33.33,0,0,0,.07.13.27.27,0,0,0,.07.2c.07.1,0,.1,0,.14a.34.34,0,0,1,0,.2v13.71h.33a1.86,1.86,0,0,1,2,1.74Zm-5.86-10.06-6.62,8.22h6.62Z"></path><path class="cls-8" d="M461.6,86.75s2.78-4.57-1.26-6.58-5.87,3-5.87,3Z"></path><polygon class="cls-9" points="438.34 116.99 445.47 120.53 461.69 86.56 454.56 83.02 438.34 116.99"></polygon><polygon class="cls-4" points="453.41 83.89 461.73 88.03 462.38 86.68 454.06 82.54 453.41 83.89"></polygon><polygon class="cls-4" points="452.7 85.39 461.02 89.52 461.67 88.17 453.34 84.04 452.7 85.39"></polygon><path class="cls-7" d="M438.34,117l.68,5.53.21,1.82,1.56-.94,4.68-2.87-.31-1.2-1.11.5-.32-1.21-1.11.5-.3-1.2-1.13.49-.3-1.2-1.12.49-.31-1.2Z"></path><polygon class="cls-10" points="439.02 122.52 439.23 124.34 440.79 123.4 439.02 122.52"></polygon><path class="cls-4" d="M441.3,115.88c1-2.41,2-4.79,3.06-7.16s2.17-4.7,3.26-7.06,2.26-4.66,3.44-7,2.37-4.62,3.65-6.88c-1,2.42-2,4.79-3.06,7.16s-2.17,4.71-3.26,7.06-2.26,4.67-3.44,7S442.58,113.62,441.3,115.88Z"></path><path class="cls-4" d="M444.53,117.43c1-2.42,2-4.79,3.05-7.16s2.18-4.71,3.26-7.06,2.27-4.67,3.44-7,2.37-4.61,3.65-6.87c-.95,2.41-2,4.79-3.05,7.16s-2.18,4.7-3.27,7.06-2.26,4.66-3.44,7S445.8,115.16,444.53,117.43Z"></path><path class="cls-5" d="M318.5,96.52a53.76,53.76,0,1,0,53.75,53.77h0A53.76,53.76,0,0,0,318.5,96.52Zm0,78.86a25.11,25.11,0,1,1,25.1-25.12v0A25.12,25.12,0,0,1,318.5,175.38Z"></path><polygon class="cls-5" points="328.83 98.75 308.16 98.75 309.31 84.12 327.69 84.12 328.83 98.75"></polygon><polygon class="cls-5" points="289.49 105.72 274.87 120.33 265.33 109.18 278.33 96.18 289.49 105.72"></polygon><polygon class="cls-5" points="266.59 138.46 266.59 159.13 251.96 157.99 251.96 139.6 266.59 138.46"></polygon><polygon class="cls-5" points="273.56 177.81 288.17 192.42 277.02 201.96 264.02 188.96 273.56 177.81"></polygon><polygon class="cls-5" points="306.3 200.7 326.97 200.7 325.83 215.33 307.44 215.33 306.3 200.7"></polygon><polygon class="cls-5" points="345.65 193.74 360.26 179.12 369.8 190.28 356.8 203.28 345.65 193.74"></polygon><polygon class="cls-5" points="368.54 160.99 368.54 140.32 383.17 141.46 383.17 159.85 368.54 160.99"></polygon><polygon class="cls-5" points="361.58 121.65 346.96 107.03 358.12 97.49 371.12 110.49 361.58 121.65"></polygon><path class="cls-4" d="M323.27,149.49a8.1,8.1,0,0,1,2.43,5.82,8.27,8.27,0,0,1-14.12,5.86,1.88,1.88,0,1,1,2.66-2.66,4.47,4.47,0,0,0,3.17,1.3,4.58,4.58,0,0,0,3.19-1.3,4.43,4.43,0,0,0,1.33-3.2,4.32,4.32,0,0,0-1.33-3.16,4.42,4.42,0,0,0-3.16-1.33,1.67,1.67,0,0,1-1.37-.6h0a1.9,1.9,0,0,1-.07-2.66l3.4-3.46H314a1.88,1.88,0,0,1,0-3.76h9.82a1.87,1.87,0,0,1,1.9,1.84v0a2,2,0,0,1-.24.9,2.21,2.21,0,0,1-.33.47L321,147.89A7.84,7.84,0,0,1,323.27,149.49Z"></path><circle class="cls-9" cx="354.57" cy="104.31" r="6.25"></circle><rect class="cls-11" x="347.94" y="109.6" width="13.25" height="1.91"></rect><rect class="cls-12" x="347.94" y="109.6" width="13.25" height="1.91"></rect><rect class="cls-11" x="341.15" y="135.9" width="26.84" height="1.91"></rect><rect class="cls-12" x="341.15" y="135.9" width="26.84" height="1.91"></rect><rect class="cls-11" x="341.15" y="141.26" width="26.84" height="1.91"></rect><rect class="cls-12" x="341.15" y="141.26" width="26.84" height="1.91"></rect><rect class="cls-9" x="342.15" y="137.81" width="24.84" height="3.45"></rect><rect class="cls-9" x="349.16" y="111.51" width="10.81" height="1.91"></rect><path class="cls-9" d="M365.55,135.9h-22s5-5,6.05-11c.88-5.06,1.3-11.48,1.3-11.48h7.25s.43,6.42,1.31,11.48C360.54,130.89,365.55,135.9,365.55,135.9Z"></path><path class="cls-4" d="M56,44.48l-.59-.82c1.05-.75,1.67-1.12,1.7-1.13l.51.86A17.64,17.64,0,0,0,56,44.48Z"></path><path class="cls-4" d="M318,217.27c-1.36,0-2.71-.06-4-.14l.06-1c1.29.08,2.63.12,4,.14Zm4-.08-.05-1c1.33-.06,2.66-.17,3.93-.33l.12,1c-1.24.14-2.58.26-3.94.33Zm-12.05-.4c-1.34-.15-2.67-.34-4-.56l.17-1c1.29.22,2.6.41,3.92.56Zm20-.56-.2-1c1.31-.26,2.6-.58,3.83-.94l.28,1a32.57,32.57,0,0,1-3.86.94Zm-27.93-.8c-1.32-.32-2.62-.67-3.88-1.07l.29-1c1.24.38,2.53.73,3.82,1ZM337.74,214l-.37-.93a35.87,35.87,0,0,0,3.56-1.65l.47.89C340.22,212.89,339,213.45,337.74,214Zm-43.32-1c-1.25-.49-2.49-1-3.69-1.6l.43-.9c1.18.56,2.4,1.09,3.62,1.57Zm50.44-2.83-.56-.83a38,38,0,0,0,3.15-2.36l.64.77a38.71,38.71,0,0,1-3.23,2.46Zm-57.7-.63c-1.16-.66-2.31-1.37-3.43-2.12l.56-.83c1.09.73,2.23,1.43,3.36,2.08Zm-6.7-4.47c-1-.8-2.09-1.66-3.1-2.55l.65-.75c1,.87,2,1.72,3.06,2.51Zm70.6,0-.71-.7c.9-.91,1.79-1.9,2.64-2.93l.77.63a33.37,33.37,0,0,1-2.7,3Zm-76.65-5.23c-.93-.92-1.87-1.89-2.8-2.89l.73-.68c.92,1,1.85,2,2.77,2.85Zm81.78-1-.82-.57c.74-1.06,1.46-2.18,2.15-3.33l.86.51c-.71,1.23-1.44,2.37-2.19,3.45Zm-87.25-4.93c-.83-1-1.68-2-2.53-3.12l.78-.62c.85,1.08,1.7,2.12,2.52,3.09Zm91.39-2-.88-.46c.58-1.13,1.17-2.33,1.73-3.57l.91.41c-.57,1.34-1.16,2.56-1.76,3.7ZM264,187.61c-.79-1.07-1.57-2.16-2.35-3.25l.82-.58c.77,1.09,1.55,2.17,2.33,3.24Zm99.71-3-.92-.38c.48-1.19,1-2.44,1.43-3.72l.94.35c-.5,1.31-1,2.57-1.48,3.77ZM259.36,181c-.75-1.1-1.49-2.2-2.24-3.32l.84-.55c.74,1.11,1.48,2.21,2.23,3.31Zm107.12-4-1-.31c.42-1.26.82-2.52,1.22-3.81l.95.3c-.42,1.33-.83,2.6-1.25,3.86Zm-111.57-2.67L252.69,171l.84-.55,2.21,3.35Zm113.93-5-1-.28c.37-1.27.72-2.55,1.08-3.85l1,.26c-.37,1.33-.74,2.63-1.11,3.91Zm-118.37-1.68c-.75-1.1-1.5-2.21-2.26-3.3l.82-.57c.76,1.1,1.52,2.2,2.26,3.31ZM371,161.62l-1-.25c.33-1.28.66-2.57,1-3.87l1,.24c-.37,1.34-.7,2.64-1,3.92Zm-125-.5c-.78-1.08-1.57-2.16-2.37-3.22l.8-.6c.81,1.07,1.6,2.15,2.38,3.23Zm-4.82-6.37c-.84-1.06-1.7-2.09-2.54-3.07l.76-.65c.85,1,1.71,2,2.57,3.1Zm131.82-.9-1-.24,1-3.89,1,.24ZM236,148.7c-.91-1-1.85-1.94-2.77-2.86l.7-.71c.94.92,1.88,1.9,2.8,2.89Zm138.93-2.61-1-.25c.32-1.29.65-2.58,1-3.88l1,.25c-.43,1.33-.76,2.62-1.08,3.92Zm-289-2.42c-1.34,0-2.7-.1-4-.22l.09-1c1.31.11,2.64.19,4,.21Zm4-.07v-1c1.31-.08,2.64-.2,3.94-.37l.13,1c-1.39.21-2.75.33-4.09.41Zm140.35-.48c-1-.89-2-1.75-3-2.57l.63-.78c1,.83,2.06,1.71,3.06,2.61ZM77.79,143c-1.32-.22-2.65-.49-4-.8l.23-1c1.27.31,2.58.57,3.88.78Zm20.07-.39-.2-1a37.56,37.56,0,0,0,3.85-1l.27,1c-1.28.39-2.6.71-3.92,1Zm-27.92-1.47c-1.28-.41-2.56-.86-3.8-1.35l.37-.93c1.21.48,2.47.93,3.73,1.32Zm35.68-.67-.3-1,3.82-1.2.3.95c-1.26.45-2.54.85-3.82,1.24Zm271.16-2.09-1-.26c.34-1.29.69-2.59,1.05-3.88l1,.27c-.36,1.27-.71,2.57-1.05,3.86ZM224,138.19c-1.07-.77-2.17-1.52-3.28-2.22l.53-.84c1.13.71,2.25,1.47,3.34,2.25Zm-161.58,0c-1.21-.59-2.41-1.22-3.57-1.88l.5-.87c1.13.65,2.31,1.27,3.5,1.84Zm50.81-.13-.3-.95,3.8-1.23.31,1Zm7.61-2.47-.31-1,3.81-1.24.31,1Zm-65.42-1.42c-1.11-.76-2.2-1.56-3.25-2.39l.62-.79c1,.82,2.1,1.61,3.2,2.35Zm161.89-.2c-1.15-.63-2.34-1.24-3.52-1.81l.43-.9c1.2.57,2.4,1.19,3.57,1.84Zm-88.86-.84-.3-1L132,131l.3,1Zm7.64-2.37-.29-1c1.29-.39,2.57-.76,3.85-1.12l.27,1Zm242.8-.09-1-.28c.37-1.28.76-2.57,1.15-3.84l1,.3c-.38,1.24-.76,2.52-1.13,3.8Zm-168.73-.12c-1.1-.45-2.23-.87-3.36-1.27l-.35-.12.33-.95.26.09c1.24.44,2.39.87,3.5,1.33Zm-161-1.41c-1-.92-1.94-1.88-2.84-2.87l.74-.67c.88,1,1.82,1.91,2.78,2.81Zm94.66-.55-.25-1,3.89-1,.23,1c-1.31.31-2.6.64-3.9,1Zm58.89-.66c-1.27-.39-2.56-.75-3.83-1.08l.25-1c1.28.34,2.58.7,3.87,1.09Zm-51.13-1.22-.21-1c1.31-.28,2.62-.55,3.93-.8l.19,1c-1.33.23-2.64.5-3.94.78Zm43.43-.78c-1.29-.27-2.61-.53-3.91-.75l.17-1c1.32.23,2.64.48,3.95.77Zm-35.59-.7-.16-1c1.34-.21,2.68-.4,4-.56l.12,1c-1.38.14-2.67.33-4,.54Zm27.75-.63c-1.32-.17-2.65-.31-4-.41l.08-1c1.33.11,2.67.25,4,.41Zm-19.85-.34-.09-1c1.34-.11,2.69-.2,4-.26v1c-1.23,0-2.61.13-3.94.24Zm11.92-.31q-1.74-.06-3.45-.06h-.53v-1h.53c1.15,0,2.32,0,3.49.06Zm-135.53-.77c-.82-1.06-1.61-2.17-2.34-3.29l.84-.55c.71,1.1,1.49,2.19,2.29,3.23Zm337.6-.14-.95-.31c.42-1.28.86-2.54,1.31-3.8l.94.34c-.48,1.23-.91,2.49-1.33,3.73Zm-342-6.63c-.64-1.18-1.23-2.4-1.76-3.63l.91-.4c.53,1.21,1.11,2.4,1.73,3.56ZM384,115.52l-.93-.36c.49-1.26,1-2.49,1.52-3.72l.92.4C385,113.05,384.48,114.28,384,115.52ZM36.06,109c-.43-1.26-.81-2.56-1.14-3.87l1-.24c.32,1.28.7,2.55,1.12,3.79Zm351.08-.78-.9-.43c.59-1.24,1.19-2.45,1.8-3.6l.88.47c-.59,1.12-1.19,2.34-1.78,3.55Zm3.71-7-.86-.5c.68-1.17,1.4-2.32,2.12-3.43l.84.55c-.72,1-1.42,2.16-2.1,3.33Zm-356.75,0c-.12-.72-.23-1.44-.32-2.17s-.15-1.23-.21-1.83l1-.1c.06.6.13,1.2.2,1.81s.19,1.42.31,2.12Zm361.12-6.64-.81-.59c.8-1.08,1.64-2.15,2.48-3.15l.77.64c-.83.94-1.66,2-2.44,3Zm-362-1.38c0-1.12-.08-2.25-.08-3.36v-.66h1v.66c0,1.1,0,2.21.08,3.32Zm367-4.68-.72-.69c.93-1,1.89-1.93,2.86-2.82l.68.74c-.88.83-1.83,1.76-2.75,2.72ZM34.35,85.17l-1-.07c.09-1.34.23-2.69.4-4l1,.13C34.58,82.52,34.45,83.85,34.35,85.17Zm371.76-2-.63-.78c1-.83,2.13-1.64,3.23-2.4l.57.82a38.78,38.78,0,0,0-3.17,2.31Zm6.5-4.5-.52-.86c1.15-.68,2.34-1.33,3.54-1.93l.45.89c-1.18.54-2.35,1.23-3.47,1.85ZM35.41,77.31l-1-.2c.27-1.32.59-2.64.94-3.92l1,.27C36,74.72,35.68,76,35.41,77.31Zm2.11-7.64-.94-.33c.45-1.26,1-2.52,1.48-3.75L39,66C38.45,67.19,38,68.43,37.52,69.67Zm3.18-7.25L39.81,62c.63-1.19,1.3-2.36,2-3.5l.85.53C42,60.09,41.31,61.25,40.7,62.42Zm4.19-6.72-.81-.59c.79-1.09,1.63-2.15,2.5-3.18l.76.65C46.49,53.58,45.67,54.63,44.89,55.7ZM50,49.65l-.71-.7c1-1,1.94-1.9,2.94-2.77l.66.76C51.93,47.79,51,48.7,50,49.65Z"></path><path class="cls-4" d="M420.11,74.86l-.39-.92c.62-.26,1.24-.51,1.88-.75l.36.94C421.33,74.36,420.72,74.61,420.11,74.86Z"></path><circle class="cls-4" cx="57.36" cy="42.96" r="8.15"></circle><circle class="cls-4" cx="200.14" cy="126.13" r="8.15"></circle><circle class="cls-4" cx="421.78" cy="73.66" r="8.15"></circle><circle class="cls-4" cx="318.86" cy="218.38" r="8.15"></circle></g><g id="Plant"><path class="cls-5" d="M93.1,339.66a45.81,45.81,0,0,1-.89,17.57A49.57,49.57,0,0,1,89.52,365c-1.4,3.22-2.86,6.36-2.51,9.88.34.22-.83.19-.86-.16-9.4-5.35-21.46-6.33-28.69-15.08-3.43-4.14-5.16-9.39-6-14.65-.89-5.72-1.13-12.05.34-17.69,1.25-4.77,4-9.36,8.51-11.7s10.68-2.2,15.55-.69C86.39,318.16,91.61,329.49,93.1,339.66Z"></path><path class="cls-4" d="M97.92,409.24c-1.28-4.28-2.56-8.55-3.88-12.82-2.58-8.35-5.26-16.68-8.23-24.9q-2.67-7.39-5.62-14.64a89.51,89.51,0,0,1,1.12-9.09c.78-3.64,1.93-7.16,3-10.73.06-.22-.29-.33-.38-.12-2.11,4.91-4.86,11.2-4.93,17-2.3-5.47-4.75-10.86-7.39-16.17A68.71,68.71,0,0,1,72,324.32c0-.21-.28-.27-.31-.06a46.94,46.94,0,0,0-.92,11.88q-3-6-6.42-11.81c-.2-.35-.69,0-.51.36,3.54,6.8,6.81,13.74,9.89,20.78A45.33,45.33,0,0,0,59,336.93c-.24-.08-.41.26-.17.36a53.85,53.85,0,0,1,15.94,10.55q3.32,7.74,6.32,15.58c-5.89-5.76-13.93-9.55-21.72-11.59-.27-.07-.34.34-.08.42,9,2.71,16,7.82,22.86,13.95q1.2,3.18,2.34,6.36,4.37,12.09,8.3,24.32,1.89,5.85,3.73,11.73c1.31,4.21,2.34,8.67,4,12.74.17.38.86.3.77-.17A121,121,0,0,0,97.92,409.24Z"></path><path class="cls-4" d="M82.33,331.43a23.5,23.5,0,0,0-3.39,8.44c0,.07.11.12.14,0a73.65,73.65,0,0,1,3.67-8.28C82.89,331.36,82.49,331.18,82.33,331.43Z"></path><path class="cls-4" d="M65.56,351a25.17,25.17,0,0,0-8.43-2.84c-.08,0-.13.1-.05.14,1.36.56,2.78.95,4.15,1.48S64,351,65.35,351.45a.25.25,0,1,0,.21-.45Z"></path><path class="cls-4" d="M60.84,327.45a16.81,16.81,0,0,0-2.72-1.67.15.15,0,0,0-.15.13.12.12,0,0,0,0,.09,16.7,16.7,0,0,0,2.67,1.73C60.81,327.85,61,327.57,60.84,327.45Z"></path><path class="cls-6" d="M124.79,371.58c-6.77,2-13.58,3.87-20.35,5.86-.58.17-12-21.76-7.89-33.06,3.82-10.45,12.57-18.28,23-21.83,4.83-1.64,10.77-3,15.88-1.9,4.54,1,7.75,4.73,9.22,9,2,5.8,1.34,12.72.25,18.65a32.73,32.73,0,0,1-6.66,15.22C134.65,367.79,130.06,370,124.79,371.58Z"></path><path class="cls-4" d="M134.6,350.74A90.67,90.67,0,0,1,121.33,356a56.76,56.76,0,0,0-8.86,3.2c2.86-6.37,6-12.61,9.32-18.8,4.38-1.26,9-3.23,12.27-6.33a.19.19,0,0,0,0-.27.2.2,0,0,0-.23,0c-3.61,2.55-7.59,4.08-11.58,5.81q1.35-2.5,2.74-5c.25-.46-.38-.92-.69-.47a143.07,143.07,0,0,0-9.62,16.16,74.79,74.79,0,0,1-.7-14.8.1.1,0,0,0-.13-.06.09.09,0,0,0-.06.06,49.36,49.36,0,0,0,.16,16.27c-2.37,4.74-4.53,9.59-6.48,14.51-.77-3-1.77-5.86-2.44-8.84a40.05,40.05,0,0,1-1-13,.1.1,0,0,0-.2,0,45.9,45.9,0,0,0,2.84,23.92c-1.13,3-2.21,5.93-3.2,8.91a177.24,177.24,0,0,0-9,47,.29.29,0,0,0,.58,0h0a232.47,232.47,0,0,1,10.09-46.42c2-5.9,4.22-11.63,6.7-17.25,4-1.18,8-2.79,11.91-4.15s7.76-2.86,11-5.38a.17.17,0,1,0-.14-.31Z"></path><path class="cls-4" d="M140.91,344.37c-4.14,1.47-8.06,3.53-12.2,5-.19.07-.08.37.12.33,4.37-.9,8.71-2.25,12.24-5.12C141.21,344.5,141.06,344.32,140.91,344.37Z"></path><path class="cls-4" d="M107.11,335.44c0-.22-.28-.35-.34-.12-1.14,3.81-1.92,7.86-.82,11.76,0,.16.29.16.3,0C106.44,343.14,106.23,339.31,107.11,335.44Z"></path><path class="cls-4" d="M124.21,326.62a10.14,10.14,0,0,0-1.79,6.49c0,.15.24.23.28.06.5-2.19,1.34-4.18,2-6.3a.28.28,0,0,0-.49-.25Z"></path><path class="cls-6" d="M44.26,381.26c2,6.29,6.7,15,14.17,15.07,4.84.05,9.72-.53,14.57-.6,5.2-.08,10.41-.06,15.59.25.43,0-.62-15.57-13.11-23.16-3.5-2.12-7.78-2.8-11.75-3.66a54.49,54.49,0,0,0-13.88-1.44c-2.87.11-5.26.72-6.28,3.66S43.31,378.26,44.26,381.26Z"></path><path class="cls-4" d="M49.63,373.37c3,.78,6.1,1.68,9.15,2.65a32.51,32.51,0,0,0-2.52-2.46c-1.31-1.09-2.75-1.95-4.15-2.91-.12-.08,0-.3.1-.24a17.15,17.15,0,0,1,7.37,5.86c3.8,1.22,7.56,2.58,11.18,4.06a42.07,42.07,0,0,1,7.15,3.77,28.79,28.79,0,0,0-2.59-4.51c-1.66-2.14-3.9-3.34-6.07-4.87a.19.19,0,0,1-.06-.27.18.18,0,0,1,.26-.06A17.75,17.75,0,0,1,79.19,385a41.22,41.22,0,0,1,7.08,6.44c8.27,9.38,14.78,21.87,14.8,34.62,0,.3-.49.39-.55.07a70.55,70.55,0,0,0-15.76-33.85c-.59-.69-1.2-1.35-1.81-2a55.76,55.76,0,0,0-6.83-.51c-2.66,0-5.3.39-8,.6-4.36.36-9.18.41-13.11-1.78a.17.17,0,0,1-.07-.24.17.17,0,0,1,.21-.09c8.76,3.19,18-.86,26.75,1a41.26,41.26,0,0,0-13-8.36l-.81-.32c-5.63.68-11.57,2.14-17.05.32-.16-.06-.09-.31.07-.26,5.3,1.32,10.38-.34,15.6-.61-5.69-2.21-11.49-4-17.19-6.18C49.13,373.68,49.11,373.24,49.63,373.37Z"></path><path class="cls-4" d="M47.15,378.91a74.85,74.85,0,0,0,8.19.62.06.06,0,0,1,0,.12,17.05,17.05,0,0,1-8.27-.53C47,379.08,47,378.89,47.15,378.91Z"></path><path class="cls-4" d="M65.65,373.51a13.5,13.5,0,0,1,4,2.82.17.17,0,0,1-.2.27c-.69-.5-1.4-1-2.11-1.44a19.67,19.67,0,0,1-2-1.25C65.23,373.76,65.43,373.43,65.65,373.51Z"></path><path class="cls-5" d="M109.76,393.79c-.1.21.2.4.32.19h0a.26.26,0,0,0,.19.13,125.18,125.18,0,0,0,15.26,2.66c4.13.37,8.89.6,12.51-1.8,4.9-3.25,8.12-11.93,5.47-17.45-3.13-6.55-12.57-3-17.31-.67A34.71,34.71,0,0,0,109.76,393.79Z"></path><path class="cls-4" d="M106.09,396.82a48.85,48.85,0,0,1,9.11-6.94,31.29,31.29,0,0,1,9.24-9.41c.18-.13.34.16.17.28a42,42,0,0,0-7.78,8.19,87.11,87.11,0,0,1,11.43-5.2,15.27,15.27,0,0,1,6.14-6.15s.11.05.06.09a24.9,24.9,0,0,0-5.54,5.82c2.32-.87,4.66-1.68,7-2.46.21-.07.29.26.09.33-4.17,1.63-8.44,3.35-12.58,5.34a48.62,48.62,0,0,0,15.23,0c.14,0,.2.18.06.22a30.06,30.06,0,0,1-16.16.24,77.64,77.64,0,0,0-7.66,4.29,19.53,19.53,0,0,1,6.19.51A47.12,47.12,0,0,0,132,393.15a.13.13,0,0,1,.09.16.14.14,0,0,1-.09.09c-6.31,1.09-12.28-1.78-18.54-1a48.3,48.3,0,0,0-6.52,5.33,49,49,0,0,0-9.51,13.41c-2.63,5.36-4.06,11-6.19,16.59a.2.2,0,0,1-.39-.11C92.69,416.66,98.13,404.61,106.09,396.82Z"></path><path class="cls-4" d="M125.14,381.84a7,7,0,0,1,1.62-2,6.37,6.37,0,0,1,1.86-1.4.07.07,0,0,1,.06.11c-.52.58-1.24,1-1.8,1.58s-1,1.23-1.59,1.78a.09.09,0,0,1-.13,0A.11.11,0,0,1,125.14,381.84Z"></path><path class="cls-4" d="M135.55,385.23c.94-.24,1.93-.22,2.88-.41a27.3,27.3,0,0,0,2.8-.84c.12,0,.19.14.08.21a9.25,9.25,0,0,1-5.76,1.33c-.11,0-.21,0-.21-.15A.14.14,0,0,1,135.55,385.23Z"></path><polygon class="cls-9" points="80.07 414.12 80.9 423.53 83.71 455.32 108.6 455.32 112.12 423.53 113.16 414.12 80.07 414.12"></polygon><polygon class="cls-4" points="80.07 414.12 80.9 423.53 112.12 423.53 113.16 414.12 80.07 414.12"></polygon><rect class="cls-9" x="77.6" y="411.55" width="38.02" height="7.64"></rect></g><path class="cls-13" d="M343.27,172.2s-5.71.69-5.41,1.58,5.95.63,6.4.69,4.63,2.09,4.63,2.09Z"></path><path class="cls-13" d="M345.81,171.12s-7.5-3.51-8.64-3.05c-1.35.54,4.32,3.53,4.32,3.53l6.56,4.28Z"></path><path class="cls-14" d="M384.1,214l-10.21,6.45-14.71-34.81s-8.26-12.5-11.61-16.68-4.72-7.24-5.8-7.06,1.32,6.22,2.75,8.49,3.82,7.62,3.82,9.27-1.36,2-6.45-.52c-3.89-1.91-2,1.42,0,3.33,1.29,1.24,10.71,7.6,10.71,7.6s7.12,42.94,12.68,48.33,30-9.51,30-9.51Z"></path><path class="cls-15" d="M395.24,228.9A123,123,0,0,1,379.31,237c-5.86,2.34-11.66,3.73-14,1.44s-4.79-10.62-7-19.83c-.66-2.83-1.31-5.72-1.89-8.53l4-3.11.8-.61h0l5.05-3.91,7.64,18L384.11,214Z"></path><path class="cls-16" d="M306.63,196.08a13.38,13.38,0,0,0,0-4.8c-.5-2.22-.28-3.95.12-4.13s1.53,2.51,2.73,6.16,1,9.13,1,9.13Z"></path><path class="cls-17" d="M355.46,211.28l-12.63,8.2-31.25-17.59s-7.09-12.21-9.06-13.74-7.63-6.37-9.06-6.1.71,3,.71,3-3.59-2.69-4.39-2.06,1.61,3.68,1.61,3.68-1.79-1.08-2.42-.63,1.17,2.87,1.17,2.87-1.26-.72-1.3.9,6.5,6.9,7.94,9.33,4.05,6.8,5.76,8.33a15,15,0,0,0,4.19,2.43s25.73,24.27,33.06,27.22S364.16,227,364.16,227Z"></path><polygon class="cls-18" points="354.57 211.86 360.4 229.64 363.3 227.62 354.57 211.86"></polygon><polygon class="cls-16" points="388.44 445 383.59 447.85 376.1 444.48 377.06 432.52 390.2 432.52 388.44 445"></polygon><path class="cls-9" d="M388.8,459.38h-33a2.46,2.46,0,0,1-2.33-3.27l.09-.23a5.83,5.83,0,0,1,2.37-3c3.23-2,19-8.84,19-8.84a29.26,29.26,0,0,0,.31-3.05c.07-1.4,1.18-1.38,1.18-1.38s1.63,4.45,4.85,5.34,7-.74,7-.74l.54-2.58c2.15,2.66,2.31,9.85,2.7,14.21l0,.42A2.84,2.84,0,0,1,388.8,459.38Z"></path><path class="cls-19" d="M389.27,459.38H354.66a1.55,1.55,0,0,1-1.54-1.79,9.21,9.21,0,0,1,.47-1.71h38c0,.31.05.61.07.9A2.41,2.41,0,0,1,389.27,459.38Z"></path><path class="cls-19" d="M373.39,450.94a.5.5,0,0,1-.4-.19c-2.22-2.88-4.36-3.3-4.38-3.3a.51.51,0,0,1,.17-1c.1,0,2.53.46,5,3.68a.51.51,0,0,1-.09.71A.49.49,0,0,1,373.39,450.94Z"></path><path class="cls-19" d="M378.65,449.2a.51.51,0,0,1-.36-.15c-3.51-3.43-6.2-3.29-6.24-3.29a.5.5,0,0,1-.54-.46.52.52,0,0,1,.46-.54c.13,0,3.15-.22,7,3.57a.52.52,0,0,1,0,.72A.51.51,0,0,1,378.65,449.2Z"></path><path class="cls-20" d="M420.9,268a85.24,85.24,0,0,1,3.17,21.36c0,10.76-23.92,86.36-23.92,86.36L393,437H374.31s1.44-66.51,3.35-79.91S389.14,268,389.14,268Z"></path><path class="cls-21" d="M420.9,268a85.24,85.24,0,0,1,3.17,21.36c0,10.76-23.92,86.36-23.92,86.36L393,437H374.31s1.44-66.51,3.35-79.91S389.14,268,389.14,268Z"></path><polygon class="cls-22" points="424.67 445 419.83 447.85 413.49 445 410.47 432.52 423.5 432.52 424.67 445"></polygon><path class="cls-9" d="M425,459.38h-33a2.45,2.45,0,0,1-2.32-3.27c0-.07.05-.15.08-.23a5.88,5.88,0,0,1,2.37-3c3.23-2,19.05-8.84,19.05-8.84s-.29-1.72-.36-3,1.65-1.41,1.65-1.41,1.82,4.45,5,5.34,7-.74,7-.74l-.24-2.59c2.15,2.66,3.1,9.86,3.48,14.22,0,.14,0,.28,0,.42A2.84,2.84,0,0,1,425,459.38Z"></path><path class="cls-23" d="M425.5,459.38H390.89a1.54,1.54,0,0,1-1.53-1.79,9.14,9.14,0,0,1,.46-1.71h38c0,.31.05.61.08.9A2.42,2.42,0,0,1,425.5,459.38Z"></path><path class="cls-23" d="M408.29,451.24a.5.5,0,0,1-.4-.19c-2.22-2.88-4.36-3.3-4.38-3.3a.51.51,0,0,1,.17-1c.1,0,2.52.46,5,3.68a.51.51,0,0,1-.09.71A.49.49,0,0,1,408.29,451.24Z"></path><path class="cls-23" d="M413.55,449.5a.51.51,0,0,1-.36-.15c-3.51-3.43-6.2-3.29-6.24-3.29a.5.5,0,0,1-.54-.46.51.51,0,0,1,.46-.54c.13,0,3.15-.22,7,3.57a.52.52,0,0,1,0,.72A.51.51,0,0,1,413.55,449.5Z"></path><path class="cls-24" d="M427.09,437H406.6S387,372.39,385.31,360.66c-.83-5.84-4.87-39.72-7-57.37-.26-2.15-.46-4.29-.64-6.45q-.56-6.75-.62-13.54c0-.48,0-.95,0-1.43v-7.28l25.69-3.85L417,268.6c.35,2.62.63,4.95.85,7.12,1.18,11.26.84,17.54-1.18,31.12L414,360.42Z"></path><path class="cls-25" d="M417.93,437h-1c-1.24-4.84-12.63-49.45-15.32-62.1-2.83-13.33-10.35-97.12-10.43-98l1-.09c.07.84,7.59,84.57,10.41,97.84C405.31,387.57,417.12,433.78,417.93,437Z"></path><path class="cls-26" d="M417.86,275.72s-16.11,8.43-40.79,7.58c0-.47,0-1,0-1.43v-7.28l25.69-3.85C411,273.43,417.86,275.72,417.86,275.72Z"></path><path class="cls-27" d="M387.15,150.51s-3.3-5.68-3-10.88,8.7-8.07,8.7-8.07,5.95-3,20.21-1.16,9.11,11.86,9.11,11.86,5.43-.28,4.33,6.07c-1.19,6.81-1.44,10.13-7.36,15.52-5.59,5.1-6.25,8.74-6.25,8.74Z"></path><circle class="cls-28" cx="404.22" cy="149.41" r="16.42" transform="translate(12.74 329.58) rotate(-45)"></circle><path class="cls-29" d="M388.32,145.3a36.59,36.59,0,0,0-2.68,14.07c-.09,8.52-.62,21,10.32,19l-.81,7.26h18.13l-.42-13.06-8.64-10.71s6.1.09,5.64-6.38c-.42-6-6.81-2.77-7.08.46L400,160.18s-3.05-2-2.78-9.42Z"></path><path class="cls-30" d="M396,178.39a26,26,0,0,0,9.33-3.53s.48,9.9-10.14,10.79Z"></path><path class="cls-6" d="M427.27,206.12v1c0,5-.23,10.66-.59,16.45a1.09,1.09,0,0,1,0,.18c0,.28,0,.56-.05.85-.43,6.45-1,13-1.62,19,0,.37-.08.74-.1,1.11-.68,6.51-1.36,12.17-1.83,16,0,.37-.09.75-.14,1.08-.31,2.48,2.52,26.49,2.52,26.49s-1.05,6.92-1.41,8.35-1.83,6.9-1.83,6.9c-14.9,2.06-33,6.78-46.14,3.51l1.23-48.61v-1.07l.3-19.26v-1l.18-11.89v-.2L371.47,228l-1,.47L365.18,231l-1.13-2-5.76-10.4-1.89-3.43-2-3.57,2-1.54,4-3.11c.24-.2.52-.39.79-.61h0c1.54-1.21,3.26-2.53,5-3.91l6.16-4.69.83-.62c4.3-3.25,8.08-6.05,9.79-7.15a12.9,12.9,0,0,1,1.39-.81h0c.39-.23.8-.43,1.21-.62h0a37.72,37.72,0,0,1,6.92-2.35c1.23-.31,2.13-.45,2.45-.5l.12,0s16.07-3.62,25.19.92a2.22,2.22,0,0,1,.37.21.56.56,0,0,1,.21.09l.13.07c.24.13.47.29.71.44a10.47,10.47,0,0,1,2.32,2,8.76,8.76,0,0,1,1.3,2C426.67,194,427.21,199.39,427.27,206.12Z"></path><g class="cls-31"><path class="cls-6" d="M421.76,187.39a12.4,12.4,0,0,0-1.42-.81,78,78,0,0,1-25.31-.9c-.31,0-1.22.2-2.45.5a78.58,78.58,0,0,0,29.18,1.21Z"></path><path class="cls-6" d="M361.2,206.33l-.8.61c4.09,4.41,9.17,11.71,10.11,21.52l1-.47a38.26,38.26,0,0,0-10.27-21.66Z"></path><path class="cls-6" d="M384.73,221.63a29.88,29.88,0,0,0-11.49-24.52l-.81.62a29,29,0,0,1,11.28,24.39Z"></path><path class="cls-6" d="M397.37,204.15c.1.37.2.73.28,1.11a41.17,41.17,0,0,1,1,9.59h1a42.47,42.47,0,0,0-1-9.36,99.36,99.36,0,0,0,20,2.08,79.38,79.38,0,0,0,8.58-.45c0-.34,0-.67,0-1a95.1,95.1,0,0,1-28.8-1.71A24.4,24.4,0,0,0,392.18,193a21.49,21.49,0,0,0-6.52-4.44h0c-.41.18-.82.38-1.21.6a21.11,21.11,0,0,1,7.05,4.56A23.28,23.28,0,0,1,397.37,204.15Z"></path><path class="cls-6" d="M393.79,221.28c-2.27-.58-4-1.14-5.11-1.5l-1.32.62c.7.26,2.73,1,5.7,1.76a91.14,91.14,0,0,0,23.05,3.16,73.31,73.31,0,0,0,10.5-.73c0-.34.05-.67.07-1C413.62,225.49,401.05,223.16,393.79,221.28Z"></path><path class="cls-6" d="M378.83,237.37l-1-.3-.19-.06v1a8.16,8.16,0,0,0,.84.26c17,5,30.36,6.61,40.37,6.61,2.18,0,4.21-.07,6.07-.21l.12-1.13C414.64,244.35,399.43,243.43,378.83,237.37Z"></path><path class="cls-6" d="M377.31,257.31v1.07a99.72,99.72,0,0,0,30,5,70.36,70.36,0,0,0,15.49-1.66c.05-.33.09-.69.14-1.06C405.14,264.78,387.31,260.6,377.31,257.31Z"></path></g><polygon class="cls-32" points="399.69 214.85 393.79 221.28 393.06 222.16 377.57 239.84 377.8 224.91 387.36 220.41 388.68 219.78 399.69 214.85"></polygon><path class="cls-33" d="M420.34,186.58a2.22,2.22,0,0,1,.37.21c-1.92-.89-13.94-1.09-28.65,4.76-12.85,5.11-35,24.76-35,24.76l-2.62-4.72,2-1.54,4-3.11c.24-.2.52-.39.79-.61h0c1.54-1.21,3.26-2.53,5-3.91l6.16-4.69.83-.62c4.3-3.25,8.08-6.05,9.79-7.15a12.9,12.9,0,0,1,1.39-.81h0c.39-.23.8-.43,1.21-.62h0a37.72,37.72,0,0,1,6.92-2.35c1.23-.31,2.13-.45,2.45-.5l.12,0S411.22,182,420.34,186.58Z"></path><path class="cls-34" d="M302.82,193.24a.37.37,0,0,1-.28-.14,21.07,21.07,0,0,0-2.18-2.5c-.9-.79-6.31-5.29-6.36-5.34a.35.35,0,1,1,.45-.53c.22.18,5.47,4.55,6.37,5.34a21.42,21.42,0,0,1,2.28,2.61.34.34,0,0,1-.07.49A.31.31,0,0,1,302.82,193.24Z"></path><path class="cls-34" d="M299.54,194.56a.36.36,0,0,1-.3-.17,18.56,18.56,0,0,0-1.76-2.35c-.89-.94-6.2-5.11-6.25-5.15a.36.36,0,0,1-.06-.5.35.35,0,0,1,.49-.06c.22.18,5.4,4.25,6.33,5.23a18.75,18.75,0,0,1,1.85,2.46.35.35,0,0,1-.11.48A.33.33,0,0,1,299.54,194.56Z"></path><path class="cls-34" d="M297.73,196.92a.38.38,0,0,1-.3-.16,21.22,21.22,0,0,0-2.45-3.3c-.9-.79-5.23-4.41-5.27-4.44a.36.36,0,0,1,0-.5.35.35,0,0,1,.5,0s4.38,3.66,5.29,4.45a23,23,0,0,1,2.58,3.45.36.36,0,0,1-.11.49A.41.41,0,0,1,297.73,196.92Z"></path><path class="cls-6" d="M426.15,150.33c1.25-4.54.08-13.26-3.35-16.47s-11.78-4-18.59-3.84"></path><path class="cls-6" d="M402.25,347.85H402v-.37c0-11.28,2-12.91,2-19.82,0-7.08-2-8.69-2-20.56v-.45h.3v.44c0,11.93,2,13.55,2,20.64,0,6.9-2,8.53-2,19.76Z"></path><path class="cls-6" d="M397.44,348.41h-.29V348c0-11.28,2-12.91,2-19.82,0-7.07-2-8.69-2-20.56v-.44h.29v.43c0,11.93,2,13.55,2,20.64-.05,6.9-2,8.53-2,19.76Z"></path></g></g></svg>