<svg xmlns="http://www.w3.org/2000/svg" width="52.997" height="53.025" viewBox="0 0 52.997 53.025"><defs><style>.a{fill:#0080ff;fill-rule:evenodd;}</style></defs><path class="a" d="M26.5,53.173V42.9A16.308,16.308,0,0,0,41.644,20.663,15.357,15.357,0,0,0,32.481,11.5,16.321,16.321,0,0,0,10.246,26.641H0A26.593,26.593,0,0,1,34.944,1.463,25.661,25.661,0,0,1,51.681,18.2,26.593,26.593,0,0,1,26.5,53.173" transform="translate(0 -0.149)"></path><path class="a" d="M16.2,40.978H26.419V30.763H16.2ZM8.332,48.85H16.2V40.979H8.332ZM1.751,40.979H8.332V34.4H1.751Z" transform="translate(0.111 1.8)"></path></svg>