<svg xmlns="http://www.w3.org/2000/svg" xmlns:xlink="http://www.w3.org/1999/xlink" width="42.841" height="53.025" viewBox="0 0 42.841 53.025"><defs><style>.a{fill:rgba(66,165,245,0.8);}.b{fill:#0d47a1;}.c{fill:#42a5f5;}.d{fill:url(#a);}.e{fill:url(#b);}</style><linearGradient id="a" x1="-7.075" y1="0.283" x2="-7.075" y2="0.281" gradientUnits="objectBoundingBox"><stop offset="0.2" stop-opacity="0.149"></stop><stop offset="0.85" stop-color="#616161" stop-opacity="0.012"></stop></linearGradient><linearGradient id="b" x1="-5.425" y1="0.364" x2="-5.424" y2="0.364" gradientUnits="objectBoundingBox"><stop offset="0.2" stop-opacity="0.549"></stop><stop offset="0.85" stop-color="#616161" stop-opacity="0.012"></stop></linearGradient></defs><path class="a" d="M8.165,34.675,0,26.51,26.512,0H42.841m0,24.464H26.512L20.4,30.58l8.165,8.165"></path><path class="b" d="M951.7,1816.063l6.116,6.116h16.328L959.865,1807.9" transform="translate(-931.304 -1769.155)"></path><path class="c" d="M571.6,1435.755l8.152-8.155,8.152,8.152-8.152,8.155Z" transform="translate(-559.35 -1397.005)"></path><path class="d" d="M952,1816.252l8.152-8.152,1.138,1.138-8.152,8.152Z" transform="translate(-931.598 -1769.351)"></path><path class="e" d="M951.7,1815.965l12.115-4.186-3.95-3.98" transform="translate(-931.304 -1769.057)"></path></svg>