<svg xmlns="http://www.w3.org/2000/svg" width="65.89" height="53.025" viewBox="0 0 65.89 53.025"><defs><style>.a{fill:#ea4335;}.b{fill:#4285f4;}.c{fill:#34a853;}.d{fill:#fbbc05;}</style></defs><path class="a" d="M321.661,14.647h2.011L329.4,8.919l.282-2.43A25.746,25.746,0,0,0,287.8,19.047a3.119,3.119,0,0,1,2.011-.122l11.454-1.889s.583-.964.884-.9A14.289,14.289,0,0,1,321.7,14.647h-.041Z" transform="translate(-279.853 -0.046)"></path><path class="b" d="M1163.207,246.539A25.8,25.8,0,0,0,1155.43,234l-8.037,8.037a14.287,14.287,0,0,1,5.245,11.335V254.8a7.153,7.153,0,1,1,0,14.307h-14.309l-1.428,1.447v8.581l1.428,1.428h14.309a18.609,18.609,0,0,0,10.57-34.024Z" transform="translate(-1105.502 -227.538)"></path><path class="c" d="M274.235,1491.1h14.309v-11.453H274.235a7.094,7.094,0,0,1-2.955-.643l-2.011.621-5.767,5.728-.5,2.011a18.52,18.52,0,0,0,11.235,3.737Z" transform="translate(-255.738 -1438.153)"></path><path class="d" d="M18.546,571.6A18.608,18.608,0,0,0,7.313,604.954l8.3-8.3a7.154,7.154,0,1,1,9.465-9.465l8.3-8.3A18.6,18.6,0,0,0,18.546,571.6Z" transform="translate(-0.048 -555.811)"></path></svg>