<svg xmlns="http://www.w3.org/2000/svg" width="43.175" height="53.025" viewBox="0 0 43.175 53.025"><defs><style>.a{fill:#464646;}</style></defs><path class="a" d="M36.059,28.17A11.72,11.72,0,0,0,43.175,38.9a29.019,29.019,0,0,1-3.669,7.542c-2.21,3.23-4.5,6.448-8.117,6.515-3.55.065-4.692-2.105-8.751-2.105s-5.326,2.039-8.687,2.171c-3.488.132-6.144-3.493-8.372-6.711-4.553-6.583-8.033-18.6-3.361-26.716a12.98,12.98,0,0,1,10.972-6.646c3.425-.065,6.657,2.3,8.751,2.3s6.021-2.85,10.151-2.431a12.387,12.387,0,0,1,9.7,5.26,11.992,11.992,0,0,0-5.73,10.089m-6.673-19.7A11.679,11.679,0,0,0,32.144,0a11.886,11.886,0,0,0-7.811,4.019,11.1,11.1,0,0,0-2.813,8.2c2.975.23,6.014-1.512,7.866-3.755" transform="translate(0)"></path></svg>