<svg xmlns="http://www.w3.org/2000/svg" width="23.817" height="53.025" viewBox="0 0 23.817 53.025"><defs><style>.a{fill:#599636;}.b{fill:#6cac48;}.c{fill:#c2bfbf;}</style></defs><path class="a" d="M15.916.087l1.415,2.658A7.94,7.94,0,0,0,18.4,4.073a37.125,37.125,0,0,1,3.32,3.755,32.629,32.629,0,0,1,5.17,10.425,25.636,25.636,0,0,1,1.1,7.075A24.968,24.968,0,0,1,20.7,43.753a21.042,21.042,0,0,1-2.6,2.224c-.49,0-.722-.376-.925-.722a5.947,5.947,0,0,1-.722-2.079,10.047,10.047,0,0,1-.232-2.628v-.4c-.04-.086-.472-39.852-.3-40.055Z" transform="translate(-4.173 0.058)"></path><path class="b" d="M20.555.057c-.058-.116-.116-.028-.174.028a2.67,2.67,0,0,1-.49,1.591A7.621,7.621,0,0,1,18.62,2.946a27.676,27.676,0,0,0-6.208,7.913A31.788,31.788,0,0,0,8.833,23.8a43.046,43.046,0,0,0,1.039,9.126,27.666,27.666,0,0,0,7.249,11.408,31.674,31.674,0,0,0,2.568,2.2c.26,0,.288-.232.348-.4a7.919,7.919,0,0,0,.26-1.127l.58-4.331Z" transform="translate(-8.813 0)"></path><path class="c" d="M17.659,31.993a3.953,3.953,0,0,1,.722-1.761,1.823,1.823,0,0,1-.809-.751,5.36,5.36,0,0,1-.431-.953,16.49,16.49,0,0,1-.606-3.725v-.751a3.6,3.6,0,0,0-.174,1.243,28.781,28.781,0,0,1-.52,3.9,3.469,3.469,0,0,1-.464,1.5.575.575,0,0,0,.028.2,17.244,17.244,0,0,1,.751,4.679v.58c0,.693-.028.547.547.779a2.533,2.533,0,0,1,.722.288c.174,0,.2-.144.2-.26l-.086-.953V33.353a7.028,7.028,0,0,1,.116-1.359Z" transform="translate(-4.501 15.801)"></path></svg>