<svg xmlns="http://www.w3.org/2000/svg" id="mysql-6" width="54.017" height="53.025" viewBox="0 0 54.017 53.025"><path id="Path_40275" data-name="Path 40275" d="M49.78,41.011a17.006,17.006,0,0,0-7.127,1.029c-.551.22-1.433.22-1.506.919.294.294.331.772.588,1.176a8.613,8.613,0,0,0,1.91,2.241c.771.588,1.543,1.175,2.351,1.69,1.433.882,3.05,1.4,4.446,2.278.809.514,1.616,1.176,2.425,1.727.4.294.661.772,1.176.955v-.11c-.257-.331-.331-.808-.588-1.176-.367-.367-.735-.7-1.1-1.066a17.426,17.426,0,0,0-3.821-3.71c-1.176-.808-3.748-1.91-4.225-3.27l-.073-.073a14.941,14.941,0,0,0,2.535-.588c1.249-.331,2.388-.257,3.674-.588.588-.147,1.176-.331,1.763-.514V41.6c-.661-.661-1.139-1.543-1.837-2.168a48.984,48.984,0,0,0-6.062-4.519c-1.139-.735-2.609-1.213-3.821-1.837-.44-.221-1.176-.331-1.433-.7a14.818,14.818,0,0,1-1.506-2.829c-1.065-2.021-2.094-4.262-3.013-6.392a39.076,39.076,0,0,0-1.873-4.188c-3.784-6.246-7.9-10.03-14.218-13.741a17.659,17.659,0,0,0-4.7-1.506c-.918-.037-1.837-.11-2.755-.147a14.617,14.617,0,0,1-1.69-1.286C7.2.966,1.8-1.9.256,1.885c-.992,2.388,1.47,4.739,2.314,5.952a17.3,17.3,0,0,1,1.874,2.755c.257.624.33,1.286.588,1.947a44.111,44.111,0,0,0,1.911,4.923A17.763,17.763,0,0,0,8.3,19.739c.294.4.808.588.919,1.249a10.523,10.523,0,0,0-.845,2.756C7.053,27.9,7.567,33.039,9.441,36.088c.588.918,1.984,2.939,3.858,2.168,1.653-.661,1.286-2.755,1.763-4.592.111-.441.037-.735.257-1.029v.074c.514,1.028,1.029,2.021,1.506,3.049A20.98,20.98,0,0,0,21.6,40.681c.882.661,1.58,1.8,2.682,2.2v-.11H24.21a4.063,4.063,0,0,0-.845-.735,17.811,17.811,0,0,1-1.91-2.2,47.271,47.271,0,0,1-4.115-6.687c-.588-1.139-1.1-2.388-1.58-3.527-.221-.441-.221-1.1-.588-1.323a13.828,13.828,0,0,0-1.763,2.5,20.716,20.716,0,0,0-1.029,5.547c-.147.037-.074,0-.147.074-1.175-.294-1.58-1.506-2.021-2.535a15.888,15.888,0,0,1-.33-9.809c.257-.772,1.359-3.2.919-3.931-.22-.7-.956-1.1-1.359-1.653a14.8,14.8,0,0,1-1.323-2.351C7.236,14.082,6.8,11.8,5.84,9.746A19.554,19.554,0,0,0,4,6.918,18.189,18.189,0,0,1,1.983,4.052c-.184-.4-.441-1.065-.147-1.506a.585.585,0,0,1,.514-.477c.478-.4,1.837.11,2.314.33A18.726,18.726,0,0,1,8.3,4.236C8.816,4.6,9.367,5.3,10.029,5.485H10.8c1.176.257,2.5.073,3.6.4a23.478,23.478,0,0,1,5.291,2.535A32.594,32.594,0,0,1,31.154,20.989c.441.845.624,1.617,1.029,2.5.772,1.8,1.727,3.637,2.5,5.4a24.16,24.16,0,0,0,2.609,4.923c.551.771,2.755,1.176,3.747,1.58a26.057,26.057,0,0,1,2.535,1.029c1.249.771,2.5,1.653,3.674,2.5.588.441,2.425,1.359,2.535,2.094Z" transform="translate(-0.024 0)" fill="#00546b"></path><path id="Path_40276" data-name="Path 40276" d="M52.56,43.022a5.822,5.822,0,0,0-1.506.184v.073h.073A11.84,11.84,0,0,0,52.3,44.786c.294.588.551,1.176.845,1.764l.073-.073a2.073,2.073,0,0,0,.772-1.837,8.226,8.226,0,0,1-.441-.771C53.332,43.5,52.854,43.316,52.56,43.022Z" transform="translate(-40.278 -33.937)" fill="#00546b"></path></svg>