<svg xmlns="http://www.w3.org/2000/svg" xmlns:xlink="http://www.w3.org/1999/xlink" width="51.106" height="57.788" viewBox="0 0 51.106 57.788"><defs><linearGradient id="linear-gradient" x1="0.682" y1="0.175" x2="0.278" y2="0.898" gradientUnits="objectBoundingBox"><stop offset="0" stop-color="#41873f"></stop><stop offset="0.329" stop-color="#418b3d"></stop><stop offset="0.635" stop-color="#419637"></stop><stop offset="0.932" stop-color="#3fa92d"></stop><stop offset="1" stop-color="#3fae2a"></stop></linearGradient><linearGradient id="linear-gradient-2" x1="0.433" y1="0.552" x2="1.592" y2="-0.183" gradientUnits="objectBoundingBox"><stop offset="0.138" stop-color="#41873f"></stop><stop offset="0.403" stop-color="#54a044"></stop><stop offset="0.714" stop-color="#66b848"></stop><stop offset="0.908" stop-color="#6cc04a"></stop></linearGradient><linearGradient id="linear-gradient-3" x1="-0.044" y1="0.5" x2="1.015" y2="0.5" gradientUnits="objectBoundingBox"><stop offset="0.092" stop-color="#6cc04a"></stop><stop offset="0.286" stop-color="#66b848"></stop><stop offset="0.597" stop-color="#54a044"></stop><stop offset="0.862" stop-color="#41873f"></stop></linearGradient><linearGradient id="linear-gradient-4" x1="-97.138" y1="0.362" x2="0.279" y2="0.362" xlink:href="#linear-gradient-3"></linearGradient><linearGradient id="linear-gradient-5" x1="-1.039" y1="0.503" x2="1.008" y2="0.503" xlink:href="#linear-gradient-3"></linearGradient><linearGradient id="linear-gradient-6" x1="1.306" y1="-2.111" x2="0.044" y2="2.016" xlink:href="#linear-gradient"></linearGradient></defs><g id="Group_40229" data-name="Group 40229" transform="translate(-627.058 -984.356)"><path id="Path_45128" data-name="Path 45128" d="M26.838,1.428a2.735,2.735,0,0,0-2.706,0L1.789,14.323A2.65,2.65,0,0,0,.462,16.658V42.5a2.764,2.764,0,0,0,1.327,2.335l22.342,12.9a2.735,2.735,0,0,0,2.706,0l22.343-12.9A2.651,2.651,0,0,0,50.507,42.5V16.659a2.765,2.765,0,0,0-1.327-2.335Z" transform="translate(626.809 983.295)" fill="url(#linear-gradient)"></path><g id="Group_40226" data-name="Group 40226" transform="translate(627.058 984.356)"><path id="Path_45129" data-name="Path 45129" d="M23.828,1.418l-22.4,12.9A2.753,2.753,0,0,0,0,16.649V42.494a2.556,2.556,0,0,0,.69,1.7L25.845,1.1a3.032,3.032,0,0,0-2.017.318ZM26,57.99a3.263,3.263,0,0,0,.637-.265l22.4-12.9a2.7,2.7,0,0,0,1.38-2.335V16.648a2.7,2.7,0,0,0-.8-1.857L26,57.99Z" transform="translate(0 -1.051)" fill="none"></path><path id="Path_45130" data-name="Path 45130" d="M49.8,14.433,27.347,1.537a3.685,3.685,0,0,0-.69-.265L1.5,44.365A2.793,2.793,0,0,0,2.245,45L24.694,57.9a2.586,2.586,0,0,0,2.07.265l23.616-43.2a2.785,2.785,0,0,0-.584-.531Z" transform="translate(-0.812 -1.17)" fill="url(#linear-gradient-2)"></path></g><g id="Group_40227" data-name="Group 40227" transform="translate(627.058 980)"><path id="Path_45131" data-name="Path 45131" d="M50.416,42.551V16.706a2.752,2.752,0,0,0-1.433-2.335l-22.45-12.9a2.345,2.345,0,0,0-.849-.318L50.257,43.135a1.071,1.071,0,0,0,.159-.584ZM1.433,14.371A2.754,2.754,0,0,0,0,16.706V42.551a2.869,2.869,0,0,0,1.433,2.335l22.449,12.9a2.5,2.5,0,0,0,1.751.318L1.592,14.317l-.159.053Z" transform="translate(0 3.248)" fill="none"></path><path id="Path_45133" data-name="Path 45133" d="M50.849,54.074a3.019,3.019,0,0,0,1.327-1.7L27.551,10.345a2.7,2.7,0,0,0-1.91.318L3.351,23.507l24.04,43.835a3.7,3.7,0,0,0,1.008-.318L50.848,54.075Z" transform="translate(-1.812 -5.94)" fill-rule="evenodd" fill="url(#linear-gradient-3)"></path><path id="Path_45134" data-name="Path 45134" d="M111.112,104.4l-.159-.265v.371l.159-.106Z" transform="translate(-60.006 -56.689)" fill-rule="evenodd" fill="url(#linear-gradient-4)"></path><path id="Path_45135" data-name="Path 45135" d="M79.227,103.573l-22.4,12.9a3.2,3.2,0,0,1-1.008.318l.425.8L81.084,103.2v-.319l-.637-1.062A2.466,2.466,0,0,1,79.227,103.573Z" transform="translate(-30.19 -55.439)" fill-rule="evenodd" fill="url(#linear-gradient-5)"></path><path id="Path_45136" data-name="Path 45136" d="M79.227,103.573l-22.4,12.9a3.2,3.2,0,0,1-1.008.318l.425.8L81.084,103.2v-.319l-.637-1.062A2.466,2.466,0,0,1,79.227,103.573Z" transform="translate(-30.19 -55.439)" fill-rule="evenodd" fill="url(#linear-gradient-6)"></path></g></g></svg>