<svg xmlns="http://www.w3.org/2000/svg" width="51.428" height="53.025" viewBox="0 0 51.428 53.025"><defs><style>.a{fill:#6a778f;}.a,.b{fill-rule:evenodd;}.b{fill:#fff;}</style></defs><g transform="translate(-5.135 -4.472)"><path class="a" d="M29.45,54.955c-.009-.086-.026-.206-.043-.394-.017-.094-.026-.18-.034-.266L29,54.33h-.094a15.246,15.246,0,0,1-3.12-.214,12.015,12.015,0,0,1-2.863-.823,10.043,10.043,0,0,1-3.608-2.674,3.219,3.219,0,0,1-.643-1.654A2.365,2.365,0,0,1,20.132,46.5a4.005,4.005,0,0,1,2.554-.154c1.4.292,2.28.48,2.837.617a51.378,51.378,0,0,1-5.417-12.53c-1.509-5.451-1.525-10.191.1-12.273a14.958,14.958,0,0,1,8.5-5.434,21.854,21.854,0,0,1,10.542.446q.793-.145,1.594-.231c.771-.077,1.534-.129,2.306-.137a13.535,13.535,0,0,1,4.122.54,10.994,10.994,0,0,1,2.537,1.106c4.534-1.543,21.17-5.965,20.244,12.531a72.588,72.588,0,0,1-4.465,17.407,19.152,19.152,0,0,1-3.086,5.288c-1.585,1.766-3.411,2.546-5.485,1.8a5.417,5.417,0,0,1-1.637-.943,3.307,3.307,0,0,1-.292.308,5.9,5.9,0,0,1-2.434,1.251,10.558,10.558,0,0,1-4.3.223,8.239,8.239,0,0,1-2.006-.6,7.866,7.866,0,0,1,.034.917c-.018.463-.026.926-.043,1.251-.043,1.123-.1,2.237-.223,3.317a13.106,13.106,0,0,1-.609,2.931c-.043.112-.077.214-.119.334-.677,2.091-1.894,5.811-7.671,4.577-2.245-.48-4.243-1.088-5.845-3.385-1.4-1.98-2.288-5.16-2.425-10.7Z" transform="translate(-13.532 -11.785)"></path><path class="b" d="M34.773,53.815C34.919,51,33.53,50.5,32.562,50.224c.1-.146.24-.317.394-.514a9.877,9.877,0,0,0,1.628-2.623c.077-.189.309-.6.609-1.14,1.277-2.288,3.8-6.805,3.3-9.9-.351-2.2-2.031-3.66-6.223-3.223a.792.792,0,0,1,.043-.129,13.905,13.905,0,0,1,.977-2.143,14.839,14.839,0,0,1,12.917-8.1c8.562-.146,10.122,8.374,10.4,11.956a9.225,9.225,0,0,0-1.3-.668,10.933,10.933,0,0,0-2.348-.669,5.589,5.589,0,0,0-2.477.128,3.687,3.687,0,0,0-2.546,2.991c-1.32,6.128-.137,8.768.789,10.834a12.906,12.906,0,0,1,.821,2.051c.155.436.292.846.386,1.223a2.045,2.045,0,0,0-.308-.051,2.644,2.644,0,0,0-1.663.5,3.253,3.253,0,0,0-1.106,1.509,4.713,4.713,0,0,0-.163,1.7c.06,2.751.043,5.468-.06,7.679a19.673,19.673,0,0,1-.523,4.465,5.6,5.6,0,0,1-1.449,2.254,4.157,4.157,0,0,1-3.771.634,6.469,6.469,0,0,1-3.437-1.6A5.974,5.974,0,0,1,36.067,64.1c-.18-1.08-.437-2.965-.677-4.834-.291-2.28-.548-4.619-.617-5.451Zm20.116,1.346c-2.82-.583-3.1-.934-4.011-2.091a13.642,13.642,0,0,0-1.046-1.183.51.51,0,0,0-.334-.155,1.184,1.184,0,0,0-.677.223,1.709,1.709,0,0,0-.565.789,1.178,1.178,0,0,0,.06,1.046,5.385,5.385,0,0,0,3.557,2.288,7.6,7.6,0,0,0,3.077-.171,3.272,3.272,0,0,0,.994-.429,4.5,4.5,0,0,0-1.054-.317ZM55.7,49.8a7.472,7.472,0,0,0,2.605-5.065,7.8,7.8,0,0,0-.043-1.894,30.006,30.006,0,0,1-.146-6.111c.018-.317.035-.557.026-.746.009-.06.205-7.816-4.208-12.153,3.985-1.311,16.867-4.457,16.164,9.7a68.326,68.326,0,0,1-4.226,16.4,16.456,16.456,0,0,1-2.562,4.457c-.763.848-1.543,1.26-2.3.986a3.287,3.287,0,0,1-1.329-1.055Q57.767,51.992,55.7,49.8Zm-15.745-27.5A17.234,17.234,0,0,0,32,29.843a15.215,15.215,0,0,0-1.08,2.366,3.843,3.843,0,0,0-.308,1.534c0,.026.008.052.008.077a14.009,14.009,0,0,0,.24,2.829,20.811,20.811,0,0,1,.249,2.288,16.78,16.78,0,0,1-.189,2.563c-.274,2.271-.566,4.688.96,7.191a.959.959,0,0,1-.077.095c-.06.077-.12.154-.18.223a48.126,48.126,0,0,1-5.648-12.676c-1.268-4.585-1.466-8.322-.42-9.668a12.026,12.026,0,0,1,6.223-4.208A17.606,17.606,0,0,1,39.958,22.292Zm16.7,13.679c0,.223-.018.446-.026.668a31.3,31.3,0,0,0,.163,6.4,6.311,6.311,0,0,1,.034,1.551,6.113,6.113,0,0,1-1.577,3.574,5.351,5.351,0,0,1-3.206,1.74,5.981,5.981,0,0,1-.677.051,13.965,13.965,0,0,0-.447-1.415,20.293,20.293,0,0,0-.847-2.124c-.84-1.869-1.911-4.251-.686-9.917a2.273,2.273,0,0,1,1.526-1.885,4.151,4.151,0,0,1,1.825-.077,9.3,9.3,0,0,1,2.006.574,19.226,19.226,0,0,1,1.912.857Zm-4.4-.617a2.872,2.872,0,0,0-1.783.249.66.66,0,0,0-.411.609,1.091,1.091,0,0,0,.479.626,1.446,1.446,0,0,0,.986.249h.009a1.646,1.646,0,0,0,.926-.506,1.075,1.075,0,0,0,.351-.721c-.012-.223-.175-.409-.557-.5ZM32.1,34.325c3.394-.42,4.705.506,4.937,1.954.412,2.588-1.937,6.805-3.137,8.956-.326.574-.566,1.02-.677,1.286a8.812,8.812,0,0,1-.394.806,9.9,9.9,0,0,1-.437-5.657,19.446,19.446,0,0,0,.2-2.777,21.092,21.092,0,0,0-.266-2.46,13.834,13.834,0,0,1-.223-2.108Zm-.42,17.184c.112.034.24.068.369.111.514.146,1.329.369,1.243,2.134a1.521,1.521,0,0,1-.626.2,8.138,8.138,0,0,1-1.954.094,10.777,10.777,0,0,1-3.531-.754,8.139,8.139,0,0,1-2.117-1.372C26.993,52.281,29.927,52.832,31.679,51.51Zm1.8-16.156A.935.935,0,0,0,33.8,36a1.455,1.455,0,0,0,.88.47,1.294,1.294,0,0,0,.766-.161c.3-.169.528-.4.532-.63,0-.158-.1-.317-.344-.458a2.655,2.655,0,0,0-.823-.257,2.364,2.364,0,0,0-.866.026C33.676,35.045,33.5,35.174,33.479,35.354Zm-2.691,15.1c-.343.326-1.5.832-5.383.026a2.671,2.671,0,0,0-1.628.043.982.982,0,0,0-.609,1.028,1.721,1.721,0,0,0,.36.875,8.369,8.369,0,0,0,3.034,2.211,12.29,12.29,0,0,0,4.071.891,9.984,9.984,0,0,0,2.323-.12c.163-.034.326-.077.472-.12.12,1.088.3,2.614.5,4.157.24,1.937.506,3.857.686,4.9a7.367,7.367,0,0,0,1.774,4.062,7.831,7.831,0,0,0,4.2,2.023,5.573,5.573,0,0,0,5.04-.943,6.934,6.934,0,0,0,1.86-2.846,19.582,19.582,0,0,0,.634-4.945c.077-1.705.111-3.72.094-5.811a6.708,6.708,0,0,0,3.4,1.654,9.093,9.093,0,0,0,3.693-.2,4.445,4.445,0,0,0,1.783-.9,1.474,1.474,0,0,0,.48-.848,1.184,1.184,0,0,0-.412-1.071,4.136,4.136,0,0,0-1.979-.814c-2.28-.471-2.486-.728-3.137-1.56q-.251-.317-.523-.617a.433.433,0,0,0,.008-.1,6.52,6.52,0,0,0,2.94-.789c.617.652,2.271,2.443,4.08,4.62a4.656,4.656,0,0,0,1.979,1.5c1.414.506,2.709-.086,3.891-1.388A18.076,18.076,0,0,0,67.24,50.5a70.7,70.7,0,0,0,4.346-16.9C72.459,16.043,55.326,21.709,52.6,22.72a10.777,10.777,0,0,0-6.42-1.748,16.282,16.282,0,0,0-3.66.454c-.54-.146-1.3-.36-1.346-.377-.1-.026-.223-.051-.377-.086a19.244,19.244,0,0,0-9.437.077,13.422,13.422,0,0,0-6.977,4.714c-1.337,1.714-1.226,5.948.163,10.971a49.856,49.856,0,0,0,6.24,13.731Z" transform="translate(-16.541 -14.562)"></path></g></svg>