<svg xmlns="http://www.w3.org/2000/svg" xmlns:xlink="http://www.w3.org/1999/xlink" width="53.024" height="53.025" viewBox="0 0 53.024 53.025"><defs><style>.a{clip-path:url(#a);}.b{fill:#00749a;}.c{fill:#464342;}</style><clipPath id="a"><path d="M0,0H53.024V53.025H0Z"></path></clipPath></defs><g class="a"><path class="b" d="M207.841,41.491h-9.2v.976c2.878,0,3.34.617,3.34,4.265v6.579c0,3.649-.462,4.317-3.34,4.317-2.209-.309-3.7-1.49-5.756-3.752l-2.364-2.569c3.186-.566,4.882-2.57,4.882-4.831,0-2.826-2.415-4.985-6.938-4.985h-9.045v.976c2.878,0,3.34.617,3.34,4.265v6.579c0,3.649-.462,4.317-3.34,4.317V58.6h10.227v-.976c-2.877,0-3.34-.669-3.34-4.317V51.462h.874l5.7,7.143h14.955c7.349,0,10.536-3.905,10.536-8.583s-3.187-8.531-10.536-8.531Zm-21.533,8.376V43.033h2.107a3.152,3.152,0,0,1,3.341,3.443,3.137,3.137,0,0,1-3.341,3.392ZM208,57.011h-.36c-1.85,0-2.107-.462-2.107-2.826V43.033H208c5.345,0,6.32,3.905,6.32,6.938C214.316,53.1,213.34,57.011,208,57.011Zm-57.2-5.242,3.546-10.485c1.028-3.032.566-3.9-2.723-3.9V36.351h9.662v1.028c-3.237,0-4.008.77-5.293,4.522l-5.859,17.577h-.668l-5.243-16.086-5.344,16.086H138.2L132.5,41.9c-1.233-3.752-2.056-4.522-5.037-4.522V36.351h11.409V37.38c-3.033,0-3.855.719-2.775,3.9l3.443,10.485,5.19-15.418h.977L150.8,51.769Zm17.473,7.5c-5.653,0-10.278-4.162-10.278-9.251,0-5.037,4.625-9.2,10.278-9.2s10.278,4.163,10.278,9.2C178.548,55.11,173.923,59.272,168.269,59.272Zm0-16.856c-4.728,0-6.373,4.265-6.373,7.606,0,3.393,1.645,7.606,6.373,7.606,4.78,0,6.425-4.214,6.425-7.606C174.694,46.68,173.049,42.416,168.269,42.416Z" transform="translate(-72.301 -20.619)"></path><path class="c" d="M351.439,57.576V58.6H339.67V57.576c3.444,0,4.06-.874,4.06-6.014V43.34c0-5.14-.617-5.961-4.06-5.961V36.35h10.638c5.293,0,8.224,2.724,8.224,6.373,0,3.546-2.93,6.321-8.224,6.321h-2.93v2.517C347.378,56.7,347.995,57.576,351.439,57.576ZM350.308,38.2h-2.93v8.943h2.93c2.878,0,4.214-2,4.214-4.419C354.522,40.257,353.186,38.2,350.308,38.2Zm43.529,15.573-.258.925c-.462,1.7-1.028,2.313-4.677,2.313h-.72c-2.672,0-3.135-.617-3.135-4.265V50.382c4.009,0,4.317.359,4.317,3.032h.977V45.755h-.977c0,2.672-.309,3.032-4.317,3.032V43.032h2.826c3.65,0,4.214.617,4.677,2.313l.258.976h.821l-.359-4.831h-15.11v.976c2.877,0,3.341.617,3.341,4.265V53.31c0,3.338-.393,4.179-2.662,4.3-2.156-.33-3.637-1.506-5.663-3.734l-2.364-2.569c3.187-.566,4.883-2.57,4.883-4.831,0-2.826-2.415-4.985-6.938-4.985h-9.045v.976c2.878,0,3.341.617,3.341,4.265V53.31c0,3.649-.462,4.317-3.341,4.317V58.6h10.227v-.976c-2.877,0-3.341-.669-3.341-4.317V51.461h.874l5.7,7.143H394.3l.309-4.83h-.772ZM366.6,49.866V43.032h2.107a3.152,3.152,0,0,1,3.341,3.443,3.137,3.137,0,0,1-3.341,3.392Zm37.67,9.405a7.6,7.6,0,0,1-4.625-1.748,3.688,3.688,0,0,0-.822,1.748h-.977V52.18h1.028a5.7,5.7,0,0,0,5.807,5.4c1.645,0,2.981-.925,2.981-2.466,0-1.336-1.181-2.364-3.289-3.341l-2.93-1.387c-2.056-.977-3.6-2.674-3.6-4.934,0-2.467,2.313-4.574,5.5-4.574a6.436,6.436,0,0,1,4.009,1.336,2.9,2.9,0,0,0,.668-1.388H409v6.065h-1.079c-.36-2.416-1.7-4.42-4.419-4.42-1.439,0-2.775.822-2.775,2.108,0,1.336,1.079,2.055,3.546,3.186l2.826,1.387c2.467,1.182,3.443,3.084,3.443,4.626,0,3.237-2.826,5.5-6.27,5.5Zm15.829,0a7.6,7.6,0,0,1-4.625-1.748,3.689,3.689,0,0,0-.821,1.748h-.977V52.18H414.7a5.7,5.7,0,0,0,5.807,5.4c1.645,0,2.981-.925,2.981-2.466,0-1.336-1.182-2.364-3.289-3.341l-2.93-1.387c-2.056-.977-3.6-2.674-3.6-4.934,0-2.467,2.313-4.574,5.5-4.574a6.437,6.437,0,0,1,4.009,1.336,2.9,2.9,0,0,0,.667-1.388h.977v6.065h-1.079c-.36-2.416-1.7-4.42-4.419-4.42-1.439,0-2.776.822-2.776,2.108,0,1.336,1.079,2.055,3.547,3.186l2.826,1.387c2.467,1.182,3.443,3.084,3.443,4.626,0,3.237-2.826,5.5-6.269,5.5Z" transform="translate(-192.67 -20.619)"></path><path class="b" d="M8.708,31.451a22.749,22.749,0,0,0,12.818,20.47L10.677,22.195A22.657,22.657,0,0,0,8.708,31.451Zm38.1-1.148a11.975,11.975,0,0,0-1.876-6.273C43.777,22.157,42.7,20.571,42.7,18.7a3.938,3.938,0,0,1,3.819-4.037c.1,0,.2.013.3.018A22.74,22.74,0,0,0,12.449,18.96c.534.016,1.037.027,1.464.027,2.379,0,6.061-.289,6.061-.289a.94.94,0,0,1,.146,1.873s-1.233.145-2.6.217L25.8,45.424,30.777,30.5l-3.544-9.708c-1.225-.072-2.385-.217-2.385-.217a.94.94,0,0,1,.144-1.873s3.756.289,5.991.289c2.379,0,6.061-.289,6.061-.289a.94.94,0,0,1,.146,1.873s-1.235.145-2.6.217l8.219,24.449,2.268-7.581C46.058,34.51,46.806,32.25,46.806,30.3Z" transform="translate(-4.939 -4.939)"></path><path class="b" d="M53.24,48.947,46.416,68.776a22.75,22.75,0,0,0,13.978-.362,1.926,1.926,0,0,1-.162-.313ZM72.8,36.046a17.456,17.456,0,0,1,.153,2.339,21.454,21.454,0,0,1-1.729,8.147L64.274,66.618A22.748,22.748,0,0,0,72.8,36.046Z" transform="translate(-26.328 -20.446)"></path><path class="b" d="M26.513,0A26.513,26.513,0,1,0,53.026,26.512,26.542,26.542,0,0,0,26.513,0Zm0,51.809a25.3,25.3,0,1,1,25.3-25.3A25.326,25.326,0,0,1,26.513,51.809Z"></path></g></svg>